<?xml version="1.0" encoding="utf-8"?>
<!-- Generator: Adobe Illustrator 19.0.0, SVG Export Plug-In . SVG Version: 6.00 Build 0)  -->
<svg version="1.1" id="Layer_1" xmlns="http://www.w3.org/2000/svg" xmlns:xlink="http://www.w3.org/1999/xlink" x="0px" y="0px"
	 viewBox="-206 247.4 547 67.6" style="enable-background:new -206 247.4 547 67.6;" xml:space="preserve">
<style type="text/css">
	.st0{fill:#475357;}
	.st1{fill:#EAEAEA;}
	.st2{opacity:0.3;fill:#010101;enable-background:new    ;}
	.st3{fill:#475568;}
	.st4{opacity:0.3;}
	.st5{fill:#010101;}
	.st6{fill:#70B44A;}
	.st7{fill:#DDAB54;}
	.st8{fill:#D6655D;}
	.st9{fill:#A09F9F;}
	.st10{fill:#FFFFFF;}
	.st11{fill:#DCDBDB;}
	.st12{fill:#BABABA;}
	.st13{enable-background:new    ;}
	.st14{opacity:0.44;enable-background:new    ;}
	.st15{opacity:0.19;enable-background:new    ;}
	.st16{display:none;opacity:0.45;enable-background:new    ;}
	.st17{fill:#E74C3C;}
	.st18{fill:#3473DB;}
</style>
<g id="Browser-Dark">
	<path class="st0" d="M340.8,274.6v-22.2c0-2.8-2.2-5-5-5h-536.7c-2.8,0-5,2.2-5,5v22.2H340.8z"/>
	<rect x="-205.9" y="274.6" class="st1" width="546.8" height="40.4"/>
	<path class="st2" d="M-172.7,299.8c0.4-0.4,4.4-4.6,4.4-4.6c0.2-0.2,0.3-0.5,0.3-0.8s-0.1-0.6-0.3-0.8c0,0-4-4.2-4.4-4.6
		c-0.4-0.4-1.1-0.4-1.6,0c-0.4,0.4-0.5,1,0,1.5l3.6,3.8l-3.6,3.8c-0.5,0.5-0.4,1.1,0,1.5C-173.9,300.2-173.1,300.2-172.7,299.8z"/>
	<path class="st2" d="M-191.3,289.3c-0.4,0.4-4.4,4.6-4.4,4.6c-0.2,0.2-0.3,0.5-0.3,0.7c0,0.3,0.1,0.6,0.3,0.8c0,0,4,4.2,4.4,4.6
		c0.4,0.4,1.1,0.4,1.6,0c0.4-0.4,0.5-1,0-1.5l-3.6-3.8l3.6-3.8c0.5-0.5,0.4-1.1,0-1.5C-190.1,288.9-190.9,288.9-191.3,289.3z"/>
	<path class="st1" d="M-204.9,274.8c7.4,0,7.1-18.9,13.2-18.9h70.2c7.4,0,7.1,18.9,13.2,18.9H-204.9z"/>
	<g>
		<g>
			<path class="st3" d="M-121.7,267.3l-1.2-1.3l1.2-1.3c0.2-0.2,0.2-0.5,0-0.7s-0.5-0.2-0.7,0l-1.1,1.3l-1.1-1.3
				c-0.2-0.2-0.5-0.2-0.7,0s-0.2,0.5,0,0.7l1.2,1.3l-1.2,1.3c-0.2,0.2-0.2,0.5,0,0.7s0.5,0.2,0.7,0l1.1-1.3l1.1,1.3
				c0.2,0.2,0.5,0.2,0.7,0C-121.5,267.9-121.5,267.5-121.7,267.3z"/>
		</g>
	</g>
	<g class="st4">
		<g>
			<path class="st5" d="M-147.9,288.7c2.9,0,5.2,2.3,5.3,5.2h1.6l-2.4,2.7l-2.4-2.7h1.9c-0.1-2.1-1.8-3.9-4-3.9s-4,1.8-4,4
				s1.8,4,4,4c0.9,0,1.7-0.3,2.4-0.8l0.9,1c-0.9,0.7-2,1.1-3.3,1.1c-2.9,0-5.3-2.4-5.3-5.3C-153.2,291.1-150.8,288.7-147.9,288.7z"
				/>
		</g>
	</g>
	<circle class="st6" cx="288.4" cy="260.8" r="5.6"/>
	<circle class="st7" cx="307.4" cy="260.8" r="5.6"/>
	<circle class="st8" cx="326.5" cy="260.8" r="5.6"/>
	<g>
		<path class="st9" d="M318.9,294.9h-11.7c-0.5,0-1,0.5-1,1.2c0,0.6,0.4,1.2,1,1.2h11.7c0.5,0,1-0.5,1-1.2S319.5,294.9,318.9,294.9z
			 M307.2,292.6h11.7c0.5,0,1-0.5,1-1.2c0-0.6-0.4-1.2-1-1.2h-11.7c-0.5,0-1,0.5-1,1.2S306.7,292.6,307.2,292.6z M318.9,299.5h-11.7
			c-0.5,0-1,0.5-1,1.2c0,0.6,0.4,1.2,1,1.2h11.7c0.5,0,1-0.5,1-1.2S319.5,299.5,318.9,299.5z"/>
	</g>
	<path class="st10" d="M287.7,304.2c0,1.6-1.3,3-3,3l-411.6-1c-1.6,0-3-1.3-3-3v-16.4c0-1.6,1.3-3,3-3l411.6,1c1.6,0,3,1.3,3,3
		V304.2z"/>
	<path class="st11" d="M-116.4,288.6h-6c-0.1,0-0.1,0.1-0.1,0.2v12c0,0.1,0.1,0.2,0.1,0.2h9.1c0.1,0,0.1-0.1,0.1-0.2V292
		L-116.4,288.6z"/>
	<path class="st12" d="M-116.4,288.6L-116.4,288.6l3.3,3.4h-3c0,0-0.2,0-0.2-0.3C-116.4,291.4-116.4,288.6-116.4,288.6"/>
</g>
<g class="st13">
	<path class="st5" d="M-180.4,265.3C-180.5,265.3-180.5,265.3-180.4,265.3c-0.1,0.1-0.1,0.1-0.1,0.1c0,0-0.1,0-0.1,0
		c0,0-0.1-0.1-0.1-0.1c-0.1,0-0.1-0.1-0.2-0.1c-0.1,0-0.2,0-0.3,0c-0.1,0-0.2,0-0.3,0c-0.1,0-0.2,0.1-0.2,0.1s-0.1,0.1-0.1,0.2
		c0,0.1,0,0.1,0,0.2c0,0.1,0,0.2,0.1,0.2c0,0.1,0.1,0.1,0.2,0.2c0.1,0,0.2,0.1,0.3,0.1c0.1,0,0.2,0.1,0.3,0.1c0.1,0,0.2,0.1,0.3,0.1
		c0.1,0,0.2,0.1,0.3,0.2c0.1,0.1,0.1,0.2,0.2,0.3c0,0.1,0.1,0.2,0.1,0.4c0,0.2,0,0.3-0.1,0.4c-0.1,0.1-0.1,0.3-0.2,0.3
		c-0.1,0.1-0.2,0.2-0.4,0.2c-0.1,0.1-0.3,0.1-0.5,0.1c-0.2,0-0.4,0-0.6-0.1c-0.2-0.1-0.4-0.2-0.5-0.3l0.1-0.2c0,0,0,0,0,0
		c0,0,0,0,0.1,0c0,0,0.1,0,0.1,0.1c0,0,0.1,0.1,0.2,0.1s0.1,0.1,0.2,0.1c0.1,0,0.2,0.1,0.4,0.1c0.1,0,0.2,0,0.3,0s0.2-0.1,0.2-0.1
		c0.1-0.1,0.1-0.1,0.1-0.2c0-0.1,0-0.2,0-0.3c0-0.1,0-0.2-0.1-0.3c0-0.1-0.1-0.1-0.2-0.2c-0.1,0-0.2-0.1-0.3-0.1
		c-0.1,0-0.2-0.1-0.3-0.1c-0.1,0-0.2-0.1-0.3-0.1c-0.1,0-0.2-0.1-0.3-0.2c-0.1-0.1-0.1-0.2-0.2-0.3c0-0.1-0.1-0.2-0.1-0.4
		c0-0.1,0-0.2,0.1-0.4c0-0.1,0.1-0.2,0.2-0.3s0.2-0.2,0.3-0.2c0.1-0.1,0.3-0.1,0.5-0.1c0.2,0,0.4,0,0.5,0.1c0.2,0.1,0.3,0.2,0.4,0.3
		L-180.4,265.3z"/>
	<path class="st5" d="M-179.3,265.7v1.6c0,0.2,0,0.3,0.1,0.4c0.1,0.1,0.2,0.2,0.4,0.2c0.1,0,0.3,0,0.4-0.1s0.2-0.1,0.3-0.3v-1.8h0.4
		v2.5h-0.3c-0.1,0-0.1,0-0.1-0.1l0-0.3c-0.1,0.1-0.2,0.2-0.4,0.3c-0.1,0.1-0.3,0.1-0.5,0.1c-0.1,0-0.3,0-0.4-0.1
		c-0.1,0-0.2-0.1-0.3-0.2c-0.1-0.1-0.1-0.2-0.2-0.3c0-0.1-0.1-0.2-0.1-0.4v-1.6H-179.3z"/>
	<path class="st5" d="M-176.9,268.2v-2.5h0.3c0,0,0.1,0,0.1,0c0,0,0,0,0,0.1l0,0.4c0.1-0.2,0.2-0.3,0.3-0.4c0.1-0.1,0.3-0.1,0.4-0.1
		c0.1,0,0.1,0,0.2,0s0.1,0,0.2,0.1l-0.1,0.3c0,0,0,0.1-0.1,0.1c0,0-0.1,0-0.1,0c0,0-0.1,0-0.2,0c-0.2,0-0.3,0-0.4,0.1
		c-0.1,0.1-0.2,0.2-0.3,0.4v1.6H-176.9z"/>
	<path class="st5" d="M-173.9,265.7c0.2,0,0.3,0,0.4,0.1c0.1,0,0.2,0.1,0.3,0.2c0.1,0.1,0.2,0.2,0.2,0.3c0.1,0.1,0.1,0.3,0.1,0.5
		c0,0.1,0,0.1,0,0.1c0,0,0,0-0.1,0h-1.7c0,0.2,0,0.3,0.1,0.4c0,0.1,0.1,0.2,0.2,0.3c0.1,0.1,0.2,0.1,0.2,0.2c0.1,0,0.2,0.1,0.3,0.1
		c0.1,0,0.2,0,0.3,0c0.1,0,0.2-0.1,0.2-0.1s0.1-0.1,0.1-0.1c0,0,0.1,0,0.1,0c0,0,0.1,0,0.1,0l0.1,0.2c-0.1,0.1-0.1,0.1-0.2,0.2
		c-0.1,0-0.2,0.1-0.2,0.1c-0.1,0-0.2,0.1-0.3,0.1c-0.1,0-0.2,0-0.3,0c-0.2,0-0.3,0-0.5-0.1c-0.1-0.1-0.3-0.1-0.4-0.3
		c-0.1-0.1-0.2-0.2-0.3-0.4c-0.1-0.2-0.1-0.4-0.1-0.6c0-0.2,0-0.3,0.1-0.5c0.1-0.1,0.1-0.3,0.2-0.4c0.1-0.1,0.2-0.2,0.4-0.3
		C-174.3,265.7-174.1,265.7-173.9,265.7z M-173.9,266c-0.2,0-0.4,0.1-0.5,0.2c-0.1,0.1-0.2,0.3-0.2,0.5h1.4c0-0.1,0-0.2,0-0.3
		s-0.1-0.2-0.1-0.2c-0.1-0.1-0.1-0.1-0.2-0.1C-173.7,266-173.8,266-173.9,266z"/>
	<path class="st5" d="M-170.8,266.1C-170.9,266.2-170.9,266.2-170.8,266.1c-0.1,0.1-0.1,0-0.2,0c0,0-0.1,0-0.1-0.1
		c0,0-0.1,0-0.2-0.1c-0.1,0-0.1,0-0.2,0c-0.1,0-0.1,0-0.2,0c-0.1,0-0.1,0-0.2,0.1c0,0-0.1,0.1-0.1,0.1c0,0,0,0.1,0,0.1
		c0,0.1,0,0.1,0.1,0.2c0,0,0.1,0.1,0.1,0.1c0.1,0,0.1,0.1,0.2,0.1c0.1,0,0.2,0,0.2,0.1s0.2,0.1,0.2,0.1c0.1,0,0.1,0.1,0.2,0.1
		c0.1,0,0.1,0.1,0.1,0.2c0,0.1,0.1,0.2,0.1,0.3c0,0.1,0,0.2-0.1,0.3c0,0.1-0.1,0.2-0.2,0.3c-0.1,0.1-0.2,0.1-0.3,0.2
		s-0.3,0.1-0.4,0.1c-0.2,0-0.3,0-0.5-0.1c-0.1-0.1-0.3-0.1-0.4-0.2l0.1-0.2c0,0,0,0,0,0c0,0,0,0,0.1,0c0,0,0.1,0,0.1,0
		c0,0,0.1,0,0.1,0.1c0,0,0.1,0.1,0.2,0.1c0.1,0,0.2,0,0.3,0c0.1,0,0.2,0,0.2,0s0.1-0.1,0.2-0.1c0,0,0.1-0.1,0.1-0.1c0,0,0-0.1,0-0.2
		c0-0.1,0-0.1-0.1-0.2c0,0-0.1-0.1-0.1-0.1c-0.1,0-0.1-0.1-0.2-0.1s-0.2,0-0.2-0.1c-0.1,0-0.2-0.1-0.2-0.1c-0.1,0-0.1-0.1-0.2-0.1
		s-0.1-0.1-0.1-0.2c0-0.1-0.1-0.2-0.1-0.3c0-0.1,0-0.2,0.1-0.3c0-0.1,0.1-0.2,0.2-0.2c0.1-0.1,0.2-0.1,0.3-0.2
		c0.1,0,0.2-0.1,0.4-0.1c0.2,0,0.3,0,0.4,0.1c0.1,0.1,0.2,0.1,0.3,0.2L-170.8,266.1z"/>
	<path class="st5" d="M-170.1,268.2v-3.6h0.4v1.4c0.1-0.1,0.2-0.2,0.4-0.3c0.1-0.1,0.3-0.1,0.5-0.1c0.1,0,0.3,0,0.4,0.1
		c0.1,0,0.2,0.1,0.3,0.2s0.1,0.2,0.2,0.3c0,0.1,0.1,0.2,0.1,0.4v1.6h-0.4v-1.6c0-0.2,0-0.3-0.1-0.4s-0.2-0.2-0.4-0.2
		c-0.1,0-0.3,0-0.4,0.1c-0.1,0.1-0.2,0.1-0.3,0.3v1.8H-170.1z"/>
	<path class="st5" d="M-166.7,264.7h0.4c0,0,0.1,0,0.1,0c0,0,0,0,0.1,0.1l1,2.5c0,0.1,0,0.1,0.1,0.2c0,0.1,0,0.1,0.1,0.2
		c0-0.1,0-0.1,0-0.2c0-0.1,0-0.1,0.1-0.2l1-2.5c0,0,0-0.1,0.1-0.1s0.1,0,0.1,0h0.4l-1.5,3.5h-0.4L-166.7,264.7z"/>
	<path class="st5" d="M-162.4,268.9C-162.4,269-162.4,269-162.4,268.9c-0.1,0.1-0.1,0.1-0.2,0.1h-0.3l0.5-1l-1-2.3h0.4
		c0,0,0.1,0,0.1,0c0,0,0,0,0,0.1l0.7,1.6c0,0,0,0.1,0,0.1s0,0.1,0,0.1c0,0,0-0.1,0-0.1s0-0.1,0-0.1l0.7-1.5c0,0,0,0,0.1-0.1
		c0,0,0.1,0,0.1,0h0.4L-162.4,268.9z"/>
	<path class="st5" d="M-158.7,268.2h-0.2c0,0-0.1,0-0.1,0c0,0,0,0-0.1-0.1l-0.1-0.2c-0.1,0.1-0.1,0.1-0.2,0.2
		c-0.1,0-0.1,0.1-0.2,0.1s-0.1,0.1-0.2,0.1c-0.1,0-0.2,0-0.3,0c-0.1,0-0.2,0-0.3,0c-0.1,0-0.2-0.1-0.2-0.1c-0.1-0.1-0.1-0.1-0.2-0.2
		c0-0.1-0.1-0.2-0.1-0.3c0-0.1,0-0.2,0.1-0.3c0.1-0.1,0.1-0.2,0.3-0.2s0.3-0.1,0.5-0.2c0.2,0,0.4-0.1,0.7-0.1v-0.2
		c0-0.2,0-0.3-0.1-0.4c-0.1-0.1-0.2-0.1-0.4-0.1c-0.1,0-0.2,0-0.3,0c-0.1,0-0.1,0.1-0.2,0.1c-0.1,0-0.1,0.1-0.1,0.1s-0.1,0-0.1,0
		c0,0-0.1,0-0.1,0c0,0,0,0-0.1-0.1l-0.1-0.1c0.1-0.1,0.3-0.2,0.5-0.3c0.2-0.1,0.3-0.1,0.5-0.1c0.1,0,0.3,0,0.4,0.1s0.2,0.1,0.3,0.2
		c0.1,0.1,0.1,0.2,0.2,0.3c0,0.1,0.1,0.2,0.1,0.4V268.2z M-159.9,267.9c0.1,0,0.1,0,0.2,0c0.1,0,0.1,0,0.2-0.1
		c0.1,0,0.1-0.1,0.2-0.1c0.1,0,0.1-0.1,0.2-0.1v-0.5c-0.2,0-0.4,0-0.5,0s-0.3,0.1-0.3,0.1c-0.1,0-0.2,0.1-0.2,0.1
		c0,0.1-0.1,0.1-0.1,0.2c0,0.1,0,0.1,0,0.2c0,0,0.1,0.1,0.1,0.1s0.1,0.1,0.1,0.1C-160,267.9-159.9,267.9-159.9,267.9z"/>
	<path class="st5" d="M-156.6,266.1C-156.6,266.2-156.6,266.2-156.6,266.1c-0.1,0.1-0.1,0-0.2,0c0,0-0.1,0-0.1-0.1
		c0,0-0.1,0-0.2-0.1c-0.1,0-0.1,0-0.2,0c-0.1,0-0.1,0-0.2,0c-0.1,0-0.1,0-0.2,0.1c0,0-0.1,0.1-0.1,0.1c0,0,0,0.1,0,0.1
		c0,0.1,0,0.1,0.1,0.2c0,0,0.1,0.1,0.1,0.1c0.1,0,0.1,0.1,0.2,0.1c0.1,0,0.2,0,0.2,0.1s0.2,0.1,0.2,0.1c0.1,0,0.1,0.1,0.2,0.1
		c0.1,0,0.1,0.1,0.1,0.2c0,0.1,0.1,0.2,0.1,0.3c0,0.1,0,0.2-0.1,0.3c0,0.1-0.1,0.2-0.2,0.3c-0.1,0.1-0.2,0.1-0.3,0.2
		s-0.3,0.1-0.4,0.1c-0.2,0-0.3,0-0.5-0.1c-0.1-0.1-0.3-0.1-0.4-0.2l0.1-0.2c0,0,0,0,0,0c0,0,0,0,0.1,0c0,0,0.1,0,0.1,0
		c0,0,0.1,0,0.1,0.1c0,0,0.1,0.1,0.2,0.1c0.1,0,0.2,0,0.3,0c0.1,0,0.2,0,0.2,0s0.1-0.1,0.2-0.1c0,0,0.1-0.1,0.1-0.1c0,0,0-0.1,0-0.2
		c0-0.1,0-0.1-0.1-0.2c0,0-0.1-0.1-0.1-0.1c-0.1,0-0.1-0.1-0.2-0.1s-0.2,0-0.2-0.1c-0.1,0-0.2-0.1-0.2-0.1c-0.1,0-0.1-0.1-0.2-0.1
		s-0.1-0.1-0.1-0.2c0-0.1-0.1-0.2-0.1-0.3c0-0.1,0-0.2,0.1-0.3c0-0.1,0.1-0.2,0.2-0.2c0.1-0.1,0.2-0.1,0.3-0.2
		c0.1,0,0.2-0.1,0.4-0.1c0.2,0,0.3,0,0.4,0.1c0.1,0.1,0.2,0.1,0.3,0.2L-156.6,266.1z"/>
	<path class="st5" d="M-155,266.6h1.2v0.4h-1.2V266.6z"/>
	<path class="st5" d="M-152.5,264.7h0.4c0,0,0.1,0,0.1,0c0,0,0,0,0.1,0.1l0.7,2.4c0,0,0,0.1,0,0.1c0,0.1,0,0.1,0,0.2
		c0-0.1,0-0.1,0-0.2c0-0.1,0-0.1,0-0.1l0.8-2.4c0,0,0-0.1,0.1-0.1s0.1,0,0.1,0h0.1c0,0,0.1,0,0.1,0c0,0,0,0,0.1,0.1l0.8,2.4
		c0,0.1,0.1,0.2,0.1,0.3c0-0.1,0-0.1,0-0.2s0-0.1,0-0.1l0.7-2.4c0,0,0-0.1,0.1-0.1c0,0,0.1,0,0.1,0h0.4l-1.1,3.5h-0.4l-0.9-2.7
		c0-0.1,0-0.1,0-0.2c0,0,0,0.1,0,0.1c0,0,0,0.1,0,0.1l-0.9,2.7h-0.4L-152.5,264.7z"/>
	<path class="st5" d="M-146.2,265.7c0.2,0,0.3,0,0.4,0.1c0.1,0,0.2,0.1,0.3,0.2c0.1,0.1,0.2,0.2,0.2,0.3c0.1,0.1,0.1,0.3,0.1,0.5
		c0,0.1,0,0.1,0,0.1c0,0,0,0-0.1,0h-1.7c0,0.2,0,0.3,0.1,0.4c0,0.1,0.1,0.2,0.2,0.3c0.1,0.1,0.2,0.1,0.2,0.2c0.1,0,0.2,0.1,0.3,0.1
		c0.1,0,0.2,0,0.3,0c0.1,0,0.2-0.1,0.2-0.1s0.1-0.1,0.1-0.1c0,0,0.1,0,0.1,0c0,0,0.1,0,0.1,0l0.1,0.2c-0.1,0.1-0.1,0.1-0.2,0.2
		c-0.1,0-0.2,0.1-0.2,0.1c-0.1,0-0.2,0.1-0.3,0.1c-0.1,0-0.2,0-0.3,0c-0.2,0-0.3,0-0.5-0.1c-0.1-0.1-0.3-0.1-0.4-0.3
		c-0.1-0.1-0.2-0.2-0.3-0.4c-0.1-0.2-0.1-0.4-0.1-0.6c0-0.2,0-0.3,0.1-0.5c0.1-0.1,0.1-0.3,0.2-0.4c0.1-0.1,0.2-0.2,0.4-0.3
		C-146.5,265.7-146.4,265.7-146.2,265.7z M-146.2,266c-0.2,0-0.4,0.1-0.5,0.2c-0.1,0.1-0.2,0.3-0.2,0.5h1.4c0-0.1,0-0.2,0-0.3
		s-0.1-0.2-0.1-0.2c-0.1-0.1-0.1-0.1-0.2-0.1C-146,266-146.1,266-146.2,266z"/>
	<path class="st5" d="M-144.6,268.2v-3.6h0.4v1.5c0.1-0.1,0.2-0.2,0.4-0.3c0.1-0.1,0.3-0.1,0.5-0.1c0.1,0,0.3,0,0.4,0.1
		s0.2,0.1,0.3,0.2c0.1,0.1,0.1,0.2,0.2,0.4c0,0.2,0.1,0.3,0.1,0.5c0,0.2,0,0.4-0.1,0.5c0,0.2-0.1,0.3-0.2,0.4
		c-0.1,0.1-0.2,0.2-0.3,0.3c-0.1,0.1-0.3,0.1-0.5,0.1c-0.2,0-0.3,0-0.4-0.1c-0.1-0.1-0.2-0.1-0.3-0.3l0,0.2c0,0.1-0.1,0.1-0.1,0.1
		H-144.6z M-143.4,266c-0.1,0-0.3,0-0.4,0.1s-0.2,0.2-0.3,0.3v1.2c0.1,0.1,0.2,0.2,0.3,0.2c0.1,0,0.2,0.1,0.3,0.1
		c0.2,0,0.4-0.1,0.5-0.2c0.1-0.2,0.2-0.4,0.2-0.7c0-0.2,0-0.3,0-0.4c0-0.1-0.1-0.2-0.1-0.3c-0.1-0.1-0.1-0.1-0.2-0.2
		C-143.3,266.1-143.3,266-143.4,266z"/>
</g>
<g class="st14">
	<path class="st5" d="M-138.8,268.2c-0.1,0-0.1,0-0.1-0.1l0-0.3c-0.1,0.1-0.2,0.2-0.4,0.3c-0.1,0.1-0.3,0.1-0.5,0.1
		c-0.1,0-0.3,0-0.4-0.1s-0.2-0.1-0.3-0.2c-0.1-0.1-0.1-0.2-0.2-0.4s-0.1-0.3-0.1-0.5c0-0.2,0-0.4,0.1-0.5c0-0.2,0.1-0.3,0.2-0.4
		c0.1-0.1,0.2-0.2,0.3-0.3c0.1-0.1,0.3-0.1,0.5-0.1c0.2,0,0.3,0,0.4,0.1c0.1,0.1,0.2,0.1,0.3,0.2v-1.4h0.4v3.6H-138.8z
		 M-139.7,267.9c0.1,0,0.3,0,0.4-0.1s0.2-0.2,0.3-0.3v-1.2c-0.1-0.1-0.2-0.2-0.3-0.2c-0.1,0-0.2-0.1-0.3-0.1c-0.2,0-0.4,0.1-0.5,0.2
		c-0.1,0.2-0.2,0.4-0.2,0.7c0,0.2,0,0.3,0,0.4c0,0.1,0.1,0.2,0.1,0.3c0.1,0.1,0.1,0.1,0.2,0.2C-139.9,267.9-139.8,267.9-139.7,267.9
		z"/>
	<path class="st5" d="M-136.8,265.7c0.2,0,0.3,0,0.4,0.1c0.1,0,0.2,0.1,0.3,0.2c0.1,0.1,0.2,0.2,0.2,0.3c0.1,0.1,0.1,0.3,0.1,0.5
		c0,0.1,0,0.1,0,0.1c0,0,0,0-0.1,0h-1.7c0,0.2,0,0.3,0.1,0.4c0,0.1,0.1,0.2,0.2,0.3c0.1,0.1,0.2,0.1,0.2,0.2c0.1,0,0.2,0.1,0.3,0.1
		c0.1,0,0.2,0,0.3,0c0.1,0,0.2-0.1,0.2-0.1s0.1-0.1,0.1-0.1c0,0,0.1,0,0.1,0c0,0,0.1,0,0.1,0l0.1,0.2c-0.1,0.1-0.1,0.1-0.2,0.2
		c-0.1,0-0.2,0.1-0.2,0.1c-0.1,0-0.2,0.1-0.3,0.1c-0.1,0-0.2,0-0.3,0c-0.2,0-0.3,0-0.5-0.1c-0.1-0.1-0.3-0.1-0.4-0.3
		c-0.1-0.1-0.2-0.2-0.3-0.4c-0.1-0.2-0.1-0.4-0.1-0.6c0-0.2,0-0.3,0.1-0.5c0.1-0.1,0.1-0.3,0.2-0.4c0.1-0.1,0.2-0.2,0.4-0.3
		C-137.1,265.7-137,265.7-136.8,265.7z M-136.8,266c-0.2,0-0.4,0.1-0.5,0.2c-0.1,0.1-0.2,0.3-0.2,0.5h1.4c0-0.1,0-0.2,0-0.3
		s-0.1-0.2-0.1-0.2c-0.1-0.1-0.1-0.1-0.2-0.1C-136.6,266-136.7,266-136.8,266z"/>
</g>
<g class="st15">
	<path class="st5" d="M-133.8,266.1C-133.8,266.2-133.9,266.2-133.8,266.1c-0.1,0.1-0.1,0-0.2,0c0,0-0.1,0-0.1-0.1
		c0,0-0.1,0-0.2-0.1c-0.1,0-0.1,0-0.2,0c-0.1,0-0.1,0-0.2,0c-0.1,0-0.1,0-0.2,0.1c0,0-0.1,0.1-0.1,0.1c0,0,0,0.1,0,0.1
		c0,0.1,0,0.1,0.1,0.2c0,0,0.1,0.1,0.1,0.1c0.1,0,0.1,0.1,0.2,0.1c0.1,0,0.2,0,0.2,0.1s0.2,0.1,0.2,0.1c0.1,0,0.1,0.1,0.2,0.1
		c0.1,0,0.1,0.1,0.1,0.2c0,0.1,0.1,0.2,0.1,0.3c0,0.1,0,0.2-0.1,0.3c0,0.1-0.1,0.2-0.2,0.3c-0.1,0.1-0.2,0.1-0.3,0.2
		s-0.3,0.1-0.4,0.1c-0.2,0-0.3,0-0.5-0.1c-0.1-0.1-0.3-0.1-0.4-0.2l0.1-0.2c0,0,0,0,0,0c0,0,0,0,0.1,0c0,0,0.1,0,0.1,0
		c0,0,0.1,0,0.1,0.1c0,0,0.1,0.1,0.2,0.1c0.1,0,0.2,0,0.3,0c0.1,0,0.2,0,0.2,0s0.1-0.1,0.2-0.1c0,0,0.1-0.1,0.1-0.1c0,0,0-0.1,0-0.2
		c0-0.1,0-0.1-0.1-0.2c0,0-0.1-0.1-0.1-0.1c-0.1,0-0.1-0.1-0.2-0.1s-0.2,0-0.2-0.1c-0.1,0-0.2-0.1-0.2-0.1c-0.1,0-0.1-0.1-0.2-0.1
		s-0.1-0.1-0.1-0.2c0-0.1-0.1-0.2-0.1-0.3c0-0.1,0-0.2,0.1-0.3c0-0.1,0.1-0.2,0.2-0.2c0.1-0.1,0.2-0.1,0.3-0.2
		c0.1,0,0.2-0.1,0.4-0.1c0.2,0,0.3,0,0.4,0.1c0.1,0.1,0.2,0.1,0.3,0.2L-133.8,266.1z"/>
</g>
<g id="XMLID_52_" class="st16">
</g>
<g class="st13">
	<path class="st9" d="M-95,290.5v1.7h-2.1v7.4h-1.7v-7.4h-2.1v-1.7H-95z"/>
	<path class="st9" d="M-88.7,294.4c0.3,0.3,0.5,0.7,0.5,1.2v4h-1.7v-3.4c0-0.5-0.3-0.8-0.8-0.8c-0.4,0-0.7,0.2-0.9,0.6
		c-0.2,0.4-0.3,0.8-0.3,1.4v2.2h-1.7v-9.7h1.6v5.2c0.2-0.3,0.5-0.6,0.8-0.8c0.3-0.2,0.7-0.3,1.2-0.3
		C-89.5,293.9-89.1,294.1-88.7,294.4z"/>
	<path class="st9" d="M-86.3,291.6c0.2-0.2,0.4-0.3,0.6-0.3c0.2,0,0.4,0.1,0.6,0.3c0.2,0.2,0.3,0.4,0.3,0.6s-0.1,0.5-0.3,0.6
		c-0.2,0.2-0.4,0.2-0.6,0.2c-0.2,0-0.5-0.1-0.6-0.2c-0.2-0.2-0.3-0.4-0.3-0.6S-86.4,291.8-86.3,291.6z M-84.8,294.2v5.4h-1.7v-5.4
		H-84.8z"/>
	<path class="st9" d="M-78.3,294.4c0.3,0.3,0.5,0.7,0.5,1.2v4h-1.7v-3.4c0-0.5-0.3-0.8-0.8-0.8c-0.4,0-0.7,0.2-0.9,0.6
		c-0.2,0.4-0.3,0.8-0.3,1.4v2.2h-1.7v-5.4h1.5l0.1,0.9c0.2-0.4,0.5-0.6,0.8-0.8c0.3-0.2,0.7-0.3,1.2-0.3
		C-79,293.9-78.6,294.1-78.3,294.4z"/>
	<path class="st9" d="M-70.2,294.2v5.4c0,0.5-0.1,1-0.4,1.4c-0.3,0.4-0.7,0.7-1.1,1c-0.5,0.2-1,0.4-1.6,0.4c-0.4,0-0.8-0.1-1.1-0.2
		c-0.3-0.1-0.6-0.2-0.8-0.4c-0.2-0.1-0.4-0.3-0.7-0.5l1-1.2c0.2,0.2,0.5,0.4,0.7,0.5s0.5,0.2,0.9,0.2c0.4,0,0.8-0.1,1.1-0.3
		c0.3-0.2,0.4-0.5,0.4-0.9v-0.8c-0.2,0.3-0.4,0.5-0.7,0.7c-0.3,0.2-0.7,0.3-1.2,0.3c-0.5,0-0.9-0.1-1.3-0.4s-0.7-0.6-1-1
		c-0.2-0.4-0.4-0.9-0.4-1.5c0-0.5,0.1-1,0.4-1.5c0.3-0.5,0.6-0.8,1-1.1c0.4-0.3,0.8-0.4,1.3-0.4c0.4,0,0.8,0.1,1.1,0.2
		c0.3,0.1,0.6,0.3,0.8,0.5l0.1-0.4H-70.2z M-71.9,297.5v-1.3c-0.1-0.3-0.3-0.5-0.6-0.6s-0.6-0.2-0.9-0.2c-0.4,0-0.7,0.1-1,0.4
		c-0.3,0.3-0.4,0.6-0.4,1.1s0.1,0.8,0.4,1.1c0.3,0.3,0.6,0.4,1,0.4C-72.6,298.3-72.2,298-71.9,297.5z"/>
	<path class="st17" d="M-68,299.4c-0.4-0.2-0.7-0.4-0.9-0.7l0.7-1c0.5,0.4,0.9,0.7,1.3,0.7c0.2,0,0.4,0,0.5-0.1
		c0.1-0.1,0.2-0.2,0.2-0.3c0-0.2-0.1-0.3-0.2-0.4c-0.2-0.1-0.3-0.2-0.5-0.2c-0.2-0.1-0.3-0.1-0.4-0.1c-0.5-0.1-0.8-0.4-1-0.7
		c-0.2-0.3-0.3-0.6-0.3-1c0-0.3,0.1-0.6,0.2-0.8c0.1-0.3,0.4-0.5,0.7-0.7c0.3-0.2,0.7-0.3,1.2-0.3c0.4,0,0.8,0,1.1,0.1
		c0.3,0.1,0.6,0.2,0.9,0.4l-0.6,1c-0.2-0.1-0.3-0.2-0.5-0.3c-0.2-0.1-0.4-0.1-0.5-0.1c-0.2,0-0.3,0-0.5,0.1
		c-0.1,0.1-0.2,0.2-0.2,0.3c0,0.2,0.1,0.3,0.2,0.4c0.1,0.1,0.4,0.2,0.7,0.3c0,0,0.1,0,0.1,0c0.1,0,0.1,0,0.2,0
		c0.8,0.3,1.2,0.8,1.2,1.5c0,0.3-0.1,0.7-0.3,1s-0.4,0.5-0.8,0.7s-0.7,0.3-1.2,0.3C-67.2,299.7-67.6,299.6-68,299.4z"/>
	<path class="st9" d="M-57.3,290.5v9.1H-59v-9.1H-57.3z"/>
	<path class="st9" d="M-43.8,299.6h-1.7v-3.7h-3.9v3.7h-1.7v-9.1h1.7v3.7h3.9v-3.7h1.7V299.6z"/>
	<path class="st9" d="M-36.2,294.2v5.4h-1.7v-0.7c-0.5,0.5-1.1,0.8-1.7,0.8c-0.8,0-1.4-0.2-1.9-0.7c-0.5-0.5-0.7-1.2-0.7-2.1
		c0-0.6,0.1-1.1,0.4-1.6s0.5-0.8,0.9-1c0.4-0.2,0.8-0.4,1.3-0.4c0.5,0,0.8,0.1,1.1,0.2c0.3,0.1,0.5,0.3,0.7,0.6l0.1-0.6H-36.2z
		 M-37.8,297.5v-1.3c-0.1-0.3-0.3-0.5-0.5-0.6s-0.5-0.2-0.8-0.2c-0.4,0-0.7,0.1-0.9,0.4c-0.3,0.3-0.4,0.6-0.4,1.1
		c0,0.3,0.1,0.5,0.2,0.8s0.3,0.4,0.5,0.5c0.2,0.1,0.4,0.2,0.7,0.2C-38.5,298.3-38.1,298-37.8,297.5z"/>
	<path class="st9" d="M-29.1,294.2l-3,5.5h0l-3.1-5.5h2l1.2,2.6l1.1-2.6H-29.1z"/>
	<path class="st9" d="M-24.6,297.9l0.7,1.3c-0.3,0.2-0.6,0.3-0.9,0.4s-0.6,0.1-0.9,0.1c-0.6,0-1.2-0.1-1.6-0.4c-0.4-0.2-0.8-0.6-1-1
		s-0.3-0.9-0.3-1.5c0-0.5,0.1-1,0.4-1.5c0.3-0.4,0.6-0.8,1.1-1.1c0.5-0.3,1-0.4,1.5-0.4c0.7,0,1.4,0.2,1.8,0.7
		c0.5,0.5,0.8,1.1,0.9,1.9l-3.8,1.3c0.3,0.3,0.6,0.5,1,0.5C-25.3,298.2-25,298.1-24.6,297.9z M-26.7,295.6c-0.2,0.3-0.3,0.6-0.3,1.1
		v0.1l2.3-0.8c-0.2-0.5-0.5-0.8-1.1-0.8C-26.2,295.2-26.5,295.4-26.7,295.6z"/>
	<path class="st9" d="M-11.9,295.6c0.3,0.4,0.4,0.8,0.4,1.2c0,0.9-0.3,1.6-0.9,2c-0.6,0.4-1.3,0.6-2.2,0.6h-2.9v-9.1h2.6
		c0.9,0,1.7,0.2,2.2,0.6c0.5,0.4,0.8,1,0.8,1.7c0,0.5-0.1,0.8-0.3,1.2c-0.2,0.3-0.4,0.6-0.8,0.8C-12.5,295-12.2,295.3-11.9,295.6z
		 M-15.8,294.2h1c0.3,0,0.6-0.1,0.7-0.3c0.2-0.2,0.3-0.5,0.3-0.7c0-0.3-0.1-0.5-0.3-0.7c-0.2-0.2-0.5-0.2-0.8-0.2h-0.9V294.2z
		 M-13.7,297.6c0.3-0.2,0.4-0.4,0.4-0.8c0-0.6-0.5-1-1.5-1h-1v2h1.1C-14.3,297.9-13.9,297.8-13.7,297.6z"/>
	<path class="st9" d="M-4.8,294.2v5.4h-1.5l-0.1-0.9c-0.2,0.3-0.4,0.6-0.8,0.8c-0.3,0.2-0.7,0.3-1.2,0.3c-0.5,0-0.9-0.2-1.2-0.5
		c-0.3-0.3-0.5-0.7-0.5-1.2v-4h1.7v3.4c0,0.5,0.3,0.8,0.7,0.8c0.4,0,0.7-0.2,0.9-0.6c0.2-0.4,0.3-0.8,0.3-1.4v-2.2H-4.8z"/>
	<path class="st9" d="M-2.9,291.6c0.2-0.2,0.4-0.3,0.6-0.3c0.2,0,0.4,0.1,0.6,0.3c0.2,0.2,0.3,0.4,0.3,0.6s-0.1,0.5-0.3,0.6
		c-0.2,0.2-0.4,0.2-0.6,0.2c-0.2,0-0.5-0.1-0.6-0.2c-0.2-0.2-0.3-0.4-0.3-0.6S-3.1,291.8-2.9,291.6z M-1.4,294.2v5.4h-1.7v-5.4H-1.4
		z"/>
	<path class="st9" d="M1.9,289.8v9.7H0.3v-9.7H1.9z"/>
	<path class="st18" d="M5.8,291.8v2.3h1.3v1.3H5.8v4.1H4.2v-4.1H3.3v-1.3h0.8v-2.3H5.8z"/>
	<path class="st9" d="M7.9,298c0.2-0.2,0.4-0.3,0.6-0.3c0.2,0,0.4,0.1,0.6,0.3c0.2,0.2,0.3,0.4,0.3,0.6c0,0.3-0.1,0.5-0.3,0.6
		s-0.4,0.3-0.6,0.3c-0.2,0-0.4-0.1-0.6-0.2c-0.2-0.2-0.3-0.4-0.3-0.6C7.7,298.4,7.8,298.2,7.9,298z"/>
	<path class="st9" d="M15.3,294.4c0.3,0.3,0.5,0.7,0.5,1.2v4h-1.7v-3.4c0-0.5-0.3-0.8-0.8-0.8c-0.4,0-0.7,0.2-0.9,0.6
		c-0.2,0.4-0.3,0.8-0.3,1.4v2.2h-1.7v-9.7H12v5.2c0.2-0.3,0.5-0.6,0.8-0.8c0.3-0.2,0.7-0.3,1.2-0.3
		C14.5,293.9,14.9,294.1,15.3,294.4z"/>
	<path class="st9" d="M19.7,291.8v2.3h1.3v1.3h-1.3v4.1H18v-4.1h-0.8v-1.3H18v-2.3H19.7z"/>
	<path class="st9" d="M30.3,294.3c0.3,0.3,0.5,0.7,0.5,1.2v4h-1.7v-3.3c0-0.3-0.1-0.5-0.1-0.6c-0.1-0.1-0.2-0.2-0.4-0.2
		c-0.4,0-0.7,0.2-0.9,0.6c-0.2,0.4-0.3,0.8-0.3,1.4v2.2h-1.7v-3.3c0-0.3-0.1-0.5-0.1-0.6c-0.1-0.1-0.2-0.2-0.4-0.2
		c-0.4,0-0.7,0.2-0.9,0.6c-0.2,0.4-0.3,0.8-0.3,1.4v2.2h-1.7v-5.4h1.5l0.1,0.9c0.4-0.7,1-1.1,1.9-1.1c0.4,0,0.8,0.1,1,0.3
		c0.3,0.2,0.5,0.4,0.6,0.8c0.2-0.3,0.5-0.6,0.8-0.8c0.3-0.2,0.6-0.3,0.9-0.3C29.6,293.9,30,294,30.3,294.3z"/>
	<path class="st9" d="M34.2,289.8v9.7h-1.7v-9.7H34.2z"/>
</g>
</svg>
