<?xml version="1.0" encoding="UTF-8"?>
<svg enable-background="new -206 247.4 547 67.6" version="1.1" viewBox="-206 247.4 547 67.6" xmlns="http://www.w3.org/2000/svg">
<title>Chrome Browser</title>
<style type="text/css">.st0{fill:#475357;}
	.st1{fill:#EAEAEA;}
	.st2{opacity:0.3;fill:#010101;enable-background:new    ;}
	.st3{fill:#475568;}
	.st4{opacity:0.3;}
	.st5{fill:#010101;}
	.st6{fill:#70B44A;}
	.st7{fill:#DDAB54;}
	.st8{fill:#D6655D;}
	.st9{fill:#A09F9F;}
	.st10{fill:#FFFFFF;}
	.st11{fill:#DCDBDB;}
	.st12{fill:#BABABA;}
	.st13{enable-background:new    ;}
	.st14{opacity:0.44;enable-background:new    ;}
	.st15{opacity:0.19;enable-background:new    ;}
	.st16{display:none;opacity:0.45;enable-background:new    ;}
	.st17{fill:#E74C3C;}
	.st18{fill:#3473DB;}</style>
<path class="st0" d="m340.8 274.6v-22.2c0-2.8-2.2-5-5-5h-536.7c-2.8 0-5 2.2-5 5v22.2h546.7z"/>
<rect class="st1" x="-205.9" y="274.6" width="546.8" height="40.4"/>
<path class="st2" d="m-172.7 299.8c0.4-0.4 4.4-4.6 4.4-4.6 0.2-0.2 0.3-0.5 0.3-0.8s-0.1-0.6-0.3-0.8c0 0-4-4.2-4.4-4.6s-1.1-0.4-1.6 0c-0.4 0.4-0.5 1 0 1.5l3.6 3.8-3.6 3.8c-0.5 0.5-0.4 1.1 0 1.5 0.4 0.6 1.2 0.6 1.6 0.2z"/>
<path class="st2" d="m-191.3 289.3c-0.4 0.4-4.4 4.6-4.4 4.6-0.2 0.2-0.3 0.5-0.3 0.7 0 0.3 0.1 0.6 0.3 0.8 0 0 4 4.2 4.4 4.6s1.1 0.4 1.6 0c0.4-0.4 0.5-1 0-1.5l-3.6-3.8 3.6-3.8c0.5-0.5 0.4-1.1 0-1.5-0.4-0.5-1.2-0.5-1.6-0.1z"/>
<path class="st1" d="m-204.9 274.8c7.4 0 7.1-18.9 13.2-18.9h70.2c7.4 0 7.1 18.9 13.2 18.9h-96.6z"/>
<path class="st3" d="m-121.7 267.3-1.2-1.3 1.2-1.3c0.2-0.2 0.2-0.5 0-0.7s-0.5-0.2-0.7 0l-1.1 1.3-1.1-1.3c-0.2-0.2-0.5-0.2-0.7 0s-0.2 0.5 0 0.7l1.2 1.3-1.2 1.3c-0.2 0.2-0.2 0.5 0 0.7s0.5 0.2 0.7 0l1.1-1.3 1.1 1.3c0.2 0.2 0.5 0.2 0.7 0 0.2-0.1 0.2-0.5 0-0.7z"/>
<g class="st4">
<path class="st5" d="m-147.9 288.7c2.9 0 5.2 2.3 5.3 5.2h1.6l-2.4 2.7-2.4-2.7h1.9c-0.1-2.1-1.8-3.9-4-3.9s-4 1.8-4 4 1.8 4 4 4c0.9 0 1.7-0.3 2.4-0.8l0.9 1c-0.9 0.7-2 1.1-3.3 1.1-2.9 0-5.3-2.4-5.3-5.3s2.4-5.3 5.3-5.3z"/>
</g>
<circle class="st6" cx="288.4" cy="260.8" r="5.6"/>
<circle class="st7" cx="307.4" cy="260.8" r="5.6"/>
<circle class="st8" cx="326.5" cy="260.8" r="5.6"/>
<path class="st9" d="m318.9 294.9h-11.7c-0.5 0-1 0.5-1 1.2 0 0.6 0.4 1.2 1 1.2h11.7c0.5 0 1-0.5 1-1.2s-0.4-1.2-1-1.2zm-11.7-2.3h11.7c0.5 0 1-0.5 1-1.2 0-0.6-0.4-1.2-1-1.2h-11.7c-0.5 0-1 0.5-1 1.2s0.5 1.2 1 1.2zm11.7 6.9h-11.7c-0.5 0-1 0.5-1 1.2 0 0.6 0.4 1.2 1 1.2h11.7c0.5 0 1-0.5 1-1.2s-0.4-1.2-1-1.2z"/>
<path class="st10" d="m287.7 304.2c0 1.6-1.3 3-3 3l-411.6-1c-1.6 0-3-1.3-3-3v-16.4c0-1.6 1.3-3 3-3l411.6 1c1.6 0 3 1.3 3 3v16.4z"/>
<path class="st11" d="m-116.4 288.6h-6c-0.1 0-0.1 0.1-0.1 0.2v12c0 0.1 0.1 0.2 0.1 0.2h9.1c0.1 0 0.1-0.1 0.1-0.2v-8.8l-3.2-3.4z"/>
<path class="st12" d="m-116.4 288.6 3.3 3.4h-3s-0.2 0-0.2-0.3c-0.1-0.3-0.1-3.1-0.1-3.1"/>
<g class="st13">
<path class="st5" d="m-180.4 265.3c-0.1 0-0.1 0 0 0l-0.1 0.1h-0.1l-0.1-0.1c-0.1 0-0.1-0.1-0.2-0.1h-0.3-0.3c-0.1 0-0.2 0.1-0.2 0.1s-0.1 0.1-0.1 0.2v0.2c0 0.1 0 0.2 0.1 0.2 0 0.1 0.1 0.1 0.2 0.2 0.1 0 0.2 0.1 0.3 0.1s0.2 0.1 0.3 0.1 0.2 0.1 0.3 0.1 0.2 0.1 0.3 0.2 0.1 0.2 0.2 0.3c0 0.1 0.1 0.2 0.1 0.4s0 0.3-0.1 0.4-0.1 0.3-0.2 0.3c-0.1 0.1-0.2 0.2-0.4 0.2-0.1 0.1-0.3 0.1-0.5 0.1s-0.4 0-0.6-0.1-0.4-0.2-0.5-0.3l0.1-0.2h0.1s0.1 0 0.1 0.1c0 0 0.1 0.1 0.2 0.1s0.1 0.1 0.2 0.1 0.2 0.1 0.4 0.1h0.3s0.2-0.1 0.2-0.1c0.1-0.1 0.1-0.1 0.1-0.2v-0.3c0-0.1 0-0.2-0.1-0.3 0-0.1-0.1-0.1-0.2-0.2-0.1 0-0.2-0.1-0.3-0.1s-0.2-0.1-0.3-0.1-0.2-0.1-0.3-0.1-0.2-0.1-0.3-0.2-0.1-0.2-0.2-0.3c0-0.1-0.1-0.2-0.1-0.4 0-0.1 0-0.2 0.1-0.4 0-0.1 0.1-0.2 0.2-0.3s0.2-0.2 0.3-0.2c0.1-0.1 0.3-0.1 0.5-0.1s0.4 0 0.5 0.1c0.2 0.1 0.3 0.2 0.4 0.3v0.1z"/>
<path class="st5" d="m-179.3 265.7v1.6c0 0.2 0 0.3 0.1 0.4s0.2 0.2 0.4 0.2c0.1 0 0.3 0 0.4-0.1s0.2-0.1 0.3-0.3v-1.8h0.4v2.5h-0.3c-0.1 0-0.1 0-0.1-0.1v-0.3c-0.1 0.1-0.2 0.2-0.4 0.3-0.1 0.1-0.3 0.1-0.5 0.1-0.1 0-0.3 0-0.4-0.1-0.1 0-0.2-0.1-0.3-0.2s-0.1-0.2-0.2-0.3c0-0.1-0.1-0.2-0.1-0.4v-1.6h0.7z"/>
<path class="st5" d="m-176.9 268.2v-2.5h0.3 0.1v0.1 0.4c0.1-0.2 0.2-0.3 0.3-0.4s0.3-0.1 0.4-0.1h0.2s0.1 0 0.2 0.1l-0.1 0.3s0 0.1-0.1 0.1h-0.1-0.2c-0.2 0-0.3 0-0.4 0.1s-0.2 0.2-0.3 0.4v1.6h-0.3z"/>
<path class="st5" d="m-173.9 265.7c0.2 0 0.3 0 0.4 0.1 0.1 0 0.2 0.1 0.3 0.2s0.2 0.2 0.2 0.3c0.1 0.1 0.1 0.3 0.1 0.5v0.1h-0.1-1.7c0 0.2 0 0.3 0.1 0.4 0 0.1 0.1 0.2 0.2 0.3s0.2 0.1 0.2 0.2c0.1 0 0.2 0.1 0.3 0.1h0.3c0.1 0 0.2-0.1 0.2-0.1s0.1-0.1 0.1-0.1h0.1 0.1l0.1 0.2-0.2 0.2c-0.1 0-0.2 0.1-0.2 0.1-0.1 0-0.2 0.1-0.3 0.1h-0.3c-0.2 0-0.3 0-0.5-0.1-0.1-0.1-0.3-0.1-0.4-0.3-0.1-0.1-0.2-0.2-0.3-0.4s-0.1-0.4-0.1-0.6 0-0.3 0.1-0.5c0.1-0.1 0.1-0.3 0.2-0.4s0.2-0.2 0.4-0.3h0.7zm0 0.3c-0.2 0-0.4 0.1-0.5 0.2s-0.2 0.3-0.2 0.5h1.4v-0.3s-0.1-0.2-0.1-0.2c-0.1-0.1-0.1-0.1-0.2-0.1-0.2-0.1-0.3-0.1-0.4-0.1z"/>
<path class="st5" d="m-170.8 266.1c-0.1 0.1-0.1 0.1 0 0-0.1 0.1-0.1 0-0.2 0 0 0-0.1 0-0.1-0.1 0 0-0.1 0-0.2-0.1h-0.2-0.2c-0.1 0-0.1 0-0.2 0.1l-0.1 0.1v0.1c0 0.1 0 0.1 0.1 0.2l0.1 0.1c0.1 0 0.1 0.1 0.2 0.1s0.2 0 0.2 0.1 0.2 0.1 0.2 0.1c0.1 0 0.1 0.1 0.2 0.1s0.1 0.1 0.1 0.2 0.1 0.2 0.1 0.3 0 0.2-0.1 0.3c0 0.1-0.1 0.2-0.2 0.3s-0.2 0.1-0.3 0.2-0.3 0.1-0.4 0.1c-0.2 0-0.3 0-0.5-0.1-0.1-0.1-0.3-0.1-0.4-0.2l0.1-0.2h0.1 0.1s0.1 0 0.1 0.1c0 0 0.1 0.1 0.2 0.1h0.3 0.2s0.1-0.1 0.2-0.1l0.1-0.1v-0.2c0-0.1 0-0.1-0.1-0.2l-0.1-0.1c-0.1 0-0.1-0.1-0.2-0.1s-0.2 0-0.2-0.1c-0.1 0-0.2-0.1-0.2-0.1-0.1 0-0.1-0.1-0.2-0.1s-0.1-0.1-0.1-0.2-0.1-0.2-0.1-0.3 0-0.2 0.1-0.3c0-0.1 0.1-0.2 0.2-0.2 0.1-0.1 0.2-0.1 0.3-0.2 0.1 0 0.2-0.1 0.4-0.1s0.3 0 0.4 0.1 0.2 0.1 0.3 0.2v0.2z"/>
<path class="st5" d="m-170.1 268.2v-3.6h0.4v1.4c0.1-0.1 0.2-0.2 0.4-0.3 0.1-0.1 0.3-0.1 0.5-0.1 0.1 0 0.3 0 0.4 0.1 0.1 0 0.2 0.1 0.3 0.2s0.1 0.2 0.2 0.3c0 0.1 0.1 0.2 0.1 0.4v1.6h-0.4v-1.6c0-0.2 0-0.3-0.1-0.4s-0.2-0.2-0.4-0.2c-0.1 0-0.3 0-0.4 0.1s-0.2 0.1-0.3 0.3v1.8h-0.7z"/>
<path class="st5" d="m-166.7 264.7h0.4 0.1l0.1 0.1 1 2.5c0 0.1 0 0.1 0.1 0.2 0 0.1 0 0.1 0.1 0.2v-0.2c0-0.1 0-0.1 0.1-0.2l1-2.5s0-0.1 0.1-0.1 0.1 0 0.1 0h0.4l-1.5 3.5h-0.4l-1.6-3.5z"/>
<path class="st5" d="m-162.4 268.9v0c-0.1 0.1-0.1 0.1-0.2 0.1h-0.3l0.5-1-1-2.3h0.4 0.1v0.1l0.7 1.6v0.1s0 0.1 0 0.1v-0.1s0-0.1 0-0.1l0.7-1.5 0.1-0.1h0.1 0.4l-1.5 3.1z"/>
<path class="st5" d="m-158.7 268.2h-0.2-0.1l-0.1-0.1-0.1-0.2-0.2 0.2c-0.1 0-0.1 0.1-0.2 0.1s-0.1 0.1-0.2 0.1h-0.3-0.3c-0.1 0-0.2-0.1-0.2-0.1l-0.2-0.2c0-0.1-0.1-0.2-0.1-0.3s0-0.2 0.1-0.3 0.1-0.2 0.3-0.2 0.3-0.1 0.5-0.2c0.2 0 0.4-0.1 0.7-0.1v-0.2c0-0.2 0-0.3-0.1-0.4s-0.2-0.1-0.4-0.1h-0.3c-0.1 0-0.1 0.1-0.2 0.1s-0.1 0.1-0.1 0.1-0.1 0-0.1 0h-0.1l-0.2-0.2c0.1-0.1 0.3-0.2 0.5-0.3s0.3-0.1 0.5-0.1c0.1 0 0.3 0 0.4 0.1s0.2 0.1 0.3 0.2 0.1 0.2 0.2 0.3c0 0.1 0.1 0.2 0.1 0.4v1.4zm-1.2-0.3h0.2c0.1 0 0.1 0 0.2-0.1 0.1 0 0.1-0.1 0.2-0.1s0.1-0.1 0.2-0.1v-0.5h-0.5s-0.3 0.1-0.3 0.1c-0.1 0-0.2 0.1-0.2 0.1 0 0.1-0.1 0.1-0.1 0.2v0.2l0.1 0.1s0.1 0.1 0.1 0.1h0.1z"/>
<path class="st5" d="m-156.6 266.1v0c-0.1 0.1-0.1 0-0.2 0 0 0-0.1 0-0.1-0.1 0 0-0.1 0-0.2-0.1h-0.2-0.2c-0.1 0-0.1 0-0.2 0.1l-0.1 0.1v0.1c0 0.1 0 0.1 0.1 0.2l0.1 0.1c0.1 0 0.1 0.1 0.2 0.1s0.2 0 0.2 0.1 0.2 0.1 0.2 0.1c0.1 0 0.1 0.1 0.2 0.1s0.1 0.1 0.1 0.2 0.1 0.2 0.1 0.3 0 0.2-0.1 0.3c0 0.1-0.1 0.2-0.2 0.3s-0.2 0.1-0.3 0.2-0.3 0.1-0.4 0.1c-0.2 0-0.3 0-0.5-0.1-0.1-0.1-0.3-0.1-0.4-0.2l0.1-0.2h0.1 0.1s0.1 0 0.1 0.1c0 0 0.1 0.1 0.2 0.1h0.3 0.2s0.1-0.1 0.2-0.1l0.1-0.1v-0.2c0-0.1 0-0.1-0.1-0.2l-0.1-0.1c-0.1 0-0.1-0.1-0.2-0.1s-0.2 0-0.2-0.1c-0.1 0-0.2-0.1-0.2-0.1-0.1 0-0.1-0.1-0.2-0.1s-0.1-0.1-0.1-0.2-0.1-0.2-0.1-0.3 0-0.2 0.1-0.3c0-0.1 0.1-0.2 0.2-0.2 0.1-0.1 0.2-0.1 0.3-0.2 0.1 0 0.2-0.1 0.4-0.1s0.3 0 0.4 0.1 0.2 0.1 0.3 0.2v0.2z"/>
<path class="st5" d="m-155 266.6h1.2v0.4h-1.2v-0.4z"/>
<path class="st5" d="m-152.5 264.7h0.4 0.1l0.1 0.1 0.7 2.4v0.1 0.2-0.2-0.1l0.8-2.4s0-0.1 0.1-0.1 0.1 0 0.1 0h0.1 0.1l0.1 0.1 0.8 2.4c0 0.1 0.1 0.2 0.1 0.3v-0.2s0-0.1 0-0.1l0.7-2.4s0-0.1 0.1-0.1h0.1 0.4l-1.1 3.5h-0.4l-0.9-2.7v-0.2 0.1 0.1l-0.9 2.7h-0.4l-1.1-3.5z"/>
<path class="st5" d="m-146.2 265.7c0.2 0 0.3 0 0.4 0.1 0.1 0 0.2 0.1 0.3 0.2s0.2 0.2 0.2 0.3c0.1 0.1 0.1 0.3 0.1 0.5v0.1h-0.1-1.7c0 0.2 0 0.3 0.1 0.4 0 0.1 0.1 0.2 0.2 0.3s0.2 0.1 0.2 0.2c0.1 0 0.2 0.1 0.3 0.1h0.3c0.1 0 0.2-0.1 0.2-0.1s0.1-0.1 0.1-0.1h0.1 0.1l0.1 0.2-0.2 0.2c-0.1 0-0.2 0.1-0.2 0.1-0.1 0-0.2 0.1-0.3 0.1h-0.3c-0.2 0-0.3 0-0.5-0.1-0.1-0.1-0.3-0.1-0.4-0.3-0.1-0.1-0.2-0.2-0.3-0.4s-0.1-0.4-0.1-0.6 0-0.3 0.1-0.5c0.1-0.1 0.1-0.3 0.2-0.4s0.2-0.2 0.4-0.3h0.7zm0 0.3c-0.2 0-0.4 0.1-0.5 0.2s-0.2 0.3-0.2 0.5h1.4v-0.3s-0.1-0.2-0.1-0.2c-0.1-0.1-0.1-0.1-0.2-0.1-0.2-0.1-0.3-0.1-0.4-0.1z"/>
<path class="st5" d="m-144.6 268.2v-3.6h0.4v1.5c0.1-0.1 0.2-0.2 0.4-0.3 0.1-0.1 0.3-0.1 0.5-0.1 0.1 0 0.3 0 0.4 0.1s0.2 0.1 0.3 0.2 0.1 0.2 0.2 0.4c0 0.2 0.1 0.3 0.1 0.5s0 0.4-0.1 0.5c0 0.2-0.1 0.3-0.2 0.4l-0.3 0.3c-0.1 0.1-0.3 0.1-0.5 0.1s-0.3 0-0.4-0.1-0.2-0.1-0.3-0.3v0.2c0 0.1-0.1 0.1-0.1 0.1h-0.4zm1.2-2.2c-0.1 0-0.3 0-0.4 0.1s-0.2 0.2-0.3 0.3v1.2c0.1 0.1 0.2 0.2 0.3 0.2s0.2 0.1 0.3 0.1c0.2 0 0.4-0.1 0.5-0.2 0.1-0.2 0.2-0.4 0.2-0.7v-0.4c0-0.1-0.1-0.2-0.1-0.3l-0.2-0.2c-0.2 0-0.2-0.1-0.3-0.1z"/>
</g>
<g class="st14">
<path class="st5" d="m-138.8 268.2c-0.1 0-0.1 0-0.1-0.1v-0.3c-0.1 0.1-0.2 0.2-0.4 0.3-0.1 0.1-0.3 0.1-0.5 0.1-0.1 0-0.3 0-0.4-0.1s-0.2-0.1-0.3-0.2-0.1-0.2-0.2-0.4-0.1-0.3-0.1-0.5 0-0.4 0.1-0.5c0-0.2 0.1-0.3 0.2-0.4l0.3-0.3c0.1-0.1 0.3-0.1 0.5-0.1s0.3 0 0.4 0.1 0.2 0.1 0.3 0.2v-1.4h0.4v3.6h-0.2zm-0.9-0.3c0.1 0 0.3 0 0.4-0.1s0.2-0.2 0.3-0.3v-1.2c-0.1-0.1-0.2-0.2-0.3-0.2s-0.2-0.1-0.3-0.1c-0.2 0-0.4 0.1-0.5 0.2-0.1 0.2-0.2 0.4-0.2 0.7v0.4c0 0.1 0.1 0.2 0.1 0.3l0.2 0.2c0.1 0.1 0.2 0.1 0.3 0.1z"/>
<path class="st5" d="m-136.8 265.7c0.2 0 0.3 0 0.4 0.1 0.1 0 0.2 0.1 0.3 0.2s0.2 0.2 0.2 0.3c0.1 0.1 0.1 0.3 0.1 0.5v0.1h-0.1-1.7c0 0.2 0 0.3 0.1 0.4 0 0.1 0.1 0.2 0.2 0.3s0.2 0.1 0.2 0.2c0.1 0 0.2 0.1 0.3 0.1h0.3c0.1 0 0.2-0.1 0.2-0.1s0.1-0.1 0.1-0.1h0.1 0.1l0.1 0.2-0.2 0.2c-0.1 0-0.2 0.1-0.2 0.1-0.1 0-0.2 0.1-0.3 0.1h-0.3c-0.2 0-0.3 0-0.5-0.1-0.1-0.1-0.3-0.1-0.4-0.3-0.1-0.1-0.2-0.2-0.3-0.4s-0.1-0.4-0.1-0.6 0-0.3 0.1-0.5c0.1-0.1 0.1-0.3 0.2-0.4s0.2-0.2 0.4-0.3h0.7zm0 0.3c-0.2 0-0.4 0.1-0.5 0.2s-0.2 0.3-0.2 0.5h1.4v-0.3s-0.1-0.2-0.1-0.2c-0.1-0.1-0.1-0.1-0.2-0.1-0.2-0.1-0.3-0.1-0.4-0.1z"/>
</g>
<g class="st15">
<path class="st5" d="m-133.8 266.1c0 0.1-0.1 0.1 0 0-0.1 0.1-0.1 0-0.2 0 0 0-0.1 0-0.1-0.1 0 0-0.1 0-0.2-0.1h-0.2-0.2c-0.1 0-0.1 0-0.2 0.1l-0.1 0.1v0.1c0 0.1 0 0.1 0.1 0.2l0.1 0.1c0.1 0 0.1 0.1 0.2 0.1s0.2 0 0.2 0.1 0.2 0.1 0.2 0.1c0.1 0 0.1 0.1 0.2 0.1s0.1 0.1 0.1 0.2 0.1 0.2 0.1 0.3 0 0.2-0.1 0.3c0 0.1-0.1 0.2-0.2 0.3s-0.2 0.1-0.3 0.2-0.3 0.1-0.4 0.1c-0.2 0-0.3 0-0.5-0.1-0.1-0.1-0.3-0.1-0.4-0.2l0.1-0.2h0.1 0.1s0.1 0 0.1 0.1c0 0 0.1 0.1 0.2 0.1h0.3 0.2s0.1-0.1 0.2-0.1l0.1-0.1v-0.2c0-0.1 0-0.1-0.1-0.2l-0.1-0.1c-0.1 0-0.1-0.1-0.2-0.1s-0.2 0-0.2-0.1c-0.1 0-0.2-0.1-0.2-0.1-0.1 0-0.1-0.1-0.2-0.1s-0.1-0.1-0.1-0.2-0.1-0.2-0.1-0.3 0-0.2 0.1-0.3c0-0.1 0.1-0.2 0.2-0.2 0.1-0.1 0.2-0.1 0.3-0.2 0.1 0 0.2-0.1 0.4-0.1s0.3 0 0.4 0.1 0.2 0.1 0.3 0.2v0.2z"/>
</g>
<g class="st13">
<path class="st9" d="m-95 290.5v1.7h-2.1v7.4h-1.7v-7.4h-2.1v-1.7h5.9z"/>
<path class="st9" d="m-88.7 294.4c0.3 0.3 0.5 0.7 0.5 1.2v4h-1.7v-3.4c0-0.5-0.3-0.8-0.8-0.8-0.4 0-0.7 0.2-0.9 0.6s-0.3 0.8-0.3 1.4v2.2h-1.7v-9.7h1.6v5.2c0.2-0.3 0.5-0.6 0.8-0.8s0.7-0.3 1.2-0.3c0.5-0.1 0.9 0.1 1.3 0.4z"/>
<path class="st9" d="m-86.3 291.6c0.2-0.2 0.4-0.3 0.6-0.3s0.4 0.1 0.6 0.3 0.3 0.4 0.3 0.6-0.1 0.5-0.3 0.6c-0.2 0.2-0.4 0.2-0.6 0.2s-0.5-0.1-0.6-0.2c-0.2-0.2-0.3-0.4-0.3-0.6s0.2-0.4 0.3-0.6zm1.5 2.6v5.4h-1.7v-5.4h1.7z"/>
<path class="st9" d="m-78.3 294.4c0.3 0.3 0.5 0.7 0.5 1.2v4h-1.7v-3.4c0-0.5-0.3-0.8-0.8-0.8-0.4 0-0.7 0.2-0.9 0.6s-0.3 0.8-0.3 1.4v2.2h-1.7v-5.4h1.5l0.1 0.9c0.2-0.4 0.5-0.6 0.8-0.8s0.7-0.3 1.2-0.3c0.6-0.1 1 0.1 1.3 0.4z"/>
<path class="st9" d="m-70.2 294.2v5.4c0 0.5-0.1 1-0.4 1.4s-0.7 0.7-1.1 1c-0.5 0.2-1 0.4-1.6 0.4-0.4 0-0.8-0.1-1.1-0.2s-0.6-0.2-0.8-0.4c-0.2-0.1-0.4-0.3-0.7-0.5l1-1.2c0.2 0.2 0.5 0.4 0.7 0.5s0.5 0.2 0.9 0.2 0.8-0.1 1.1-0.3 0.4-0.5 0.4-0.9v-0.8c-0.2 0.3-0.4 0.5-0.7 0.7s-0.7 0.3-1.2 0.3-0.9-0.1-1.3-0.4-0.7-0.6-1-1c-0.2-0.4-0.4-0.9-0.4-1.5 0-0.5 0.1-1 0.4-1.5s0.6-0.8 1-1.1 0.8-0.4 1.3-0.4c0.4 0 0.8 0.1 1.1 0.2s0.6 0.3 0.8 0.5l0.1-0.4h1.5zm-1.7 3.3v-1.3c-0.1-0.3-0.3-0.5-0.6-0.6s-0.6-0.2-0.9-0.2c-0.4 0-0.7 0.1-1 0.4s-0.4 0.6-0.4 1.1 0.1 0.8 0.4 1.1 0.6 0.4 1 0.4c0.8-0.1 1.2-0.4 1.5-0.9z"/>
<path class="st17" d="m-68 299.4c-0.4-0.2-0.7-0.4-0.9-0.7l0.7-1c0.5 0.4 0.9 0.7 1.3 0.7 0.2 0 0.4 0 0.5-0.1s0.2-0.2 0.2-0.3c0-0.2-0.1-0.3-0.2-0.4-0.2-0.1-0.3-0.2-0.5-0.2-0.2-0.1-0.3-0.1-0.4-0.1-0.5-0.1-0.8-0.4-1-0.7s-0.3-0.6-0.3-1c0-0.3 0.1-0.6 0.2-0.8 0.1-0.3 0.4-0.5 0.7-0.7s0.7-0.3 1.2-0.3c0.4 0 0.8 0 1.1 0.1s0.6 0.2 0.9 0.4l-0.6 1c-0.2-0.1-0.3-0.2-0.5-0.3s-0.4-0.1-0.5-0.1c-0.2 0-0.3 0-0.5 0.1-0.1 0.1-0.2 0.2-0.2 0.3 0 0.2 0.1 0.3 0.2 0.4s0.4 0.2 0.7 0.3h0.1 0.2c0.8 0.3 1.2 0.8 1.2 1.5 0 0.3-0.1 0.7-0.3 1s-0.4 0.5-0.8 0.7-0.7 0.3-1.2 0.3c-0.5 0.2-0.9 0.1-1.3-0.1z"/>
<path class="st9" d="m-57.3 290.5v9.1h-1.7v-9.1h1.7z"/>
<path class="st9" d="m-43.8 299.6h-1.7v-3.7h-3.9v3.7h-1.7v-9.1h1.7v3.7h3.9v-3.7h1.7v9.1z"/>
<path class="st9" d="m-36.2 294.2v5.4h-1.7v-0.7c-0.5 0.5-1.1 0.8-1.7 0.8-0.8 0-1.4-0.2-1.9-0.7s-0.7-1.2-0.7-2.1c0-0.6 0.1-1.1 0.4-1.6s0.5-0.8 0.9-1 0.8-0.4 1.3-0.4 0.8 0.1 1.1 0.2 0.5 0.3 0.7 0.6l0.1-0.6h1.5zm-1.6 3.3v-1.3c-0.1-0.3-0.3-0.5-0.5-0.6s-0.5-0.2-0.8-0.2c-0.4 0-0.7 0.1-0.9 0.4-0.3 0.3-0.4 0.6-0.4 1.1 0 0.3 0.1 0.5 0.2 0.8s0.3 0.4 0.5 0.5 0.4 0.2 0.7 0.2c0.5-0.1 0.9-0.4 1.2-0.9z"/>
<path class="st9" d="m-29.1 294.2-3 5.5-3.1-5.5h2l1.2 2.6 1.1-2.6h1.8z"/>
<path class="st9" d="m-24.6 297.9 0.7 1.3c-0.3 0.2-0.6 0.3-0.9 0.4s-0.6 0.1-0.9 0.1c-0.6 0-1.2-0.1-1.6-0.4-0.4-0.2-0.8-0.6-1-1s-0.3-0.9-0.3-1.5c0-0.5 0.1-1 0.4-1.5 0.3-0.4 0.6-0.8 1.1-1.1s1-0.4 1.5-0.4c0.7 0 1.4 0.2 1.8 0.7 0.5 0.5 0.8 1.1 0.9 1.9l-3.8 1.3c0.3 0.3 0.6 0.5 1 0.5s0.7-0.1 1.1-0.3zm-2.1-2.3c-0.2 0.3-0.3 0.6-0.3 1.1v0.1l2.3-0.8c-0.2-0.5-0.5-0.8-1.1-0.8-0.4 0-0.7 0.2-0.9 0.4z"/>
<path class="st9" d="m-11.9 295.6c0.3 0.4 0.4 0.8 0.4 1.2 0 0.9-0.3 1.6-0.9 2s-1.3 0.6-2.2 0.6h-2.9v-9.1h2.6c0.9 0 1.7 0.2 2.2 0.6s0.8 1 0.8 1.7c0 0.5-0.1 0.8-0.3 1.2-0.2 0.3-0.4 0.6-0.8 0.8 0.5 0.4 0.8 0.7 1.1 1zm-3.9-1.4h1c0.3 0 0.6-0.1 0.7-0.3 0.2-0.2 0.3-0.5 0.3-0.7 0-0.3-0.1-0.5-0.3-0.7s-0.5-0.2-0.8-0.2h-0.9v1.9zm2.1 3.4c0.3-0.2 0.4-0.4 0.4-0.8 0-0.6-0.5-1-1.5-1h-1v2h1.1c0.4 0.1 0.8 0 1-0.2z"/>
<path class="st9" d="m-4.8 294.2v5.4h-1.5l-0.1-0.9c-0.2 0.3-0.4 0.6-0.8 0.8-0.3 0.2-0.7 0.3-1.2 0.3s-0.9-0.2-1.2-0.5-0.5-0.7-0.5-1.2v-4h1.7v3.4c0 0.5 0.3 0.8 0.7 0.8s0.7-0.2 0.9-0.6 0.3-0.8 0.3-1.4v-2.2h1.7z"/>
<path class="st9" d="m-2.9 291.6c0.2-0.2 0.4-0.3 0.6-0.3s0.4 0.1 0.6 0.3 0.3 0.4 0.3 0.6-0.1 0.5-0.3 0.6c-0.2 0.2-0.4 0.2-0.6 0.2s-0.5-0.1-0.6-0.2c-0.2-0.2-0.3-0.4-0.3-0.6s0.1-0.4 0.3-0.6zm1.5 2.6v5.4h-1.7v-5.4h1.7z"/>
<path class="st9" d="M1.9,289.8v9.7H0.3v-9.7H1.9z"/>
<path class="st18" d="M5.8,291.8v2.3h1.3v1.3H5.8v4.1H4.2v-4.1H3.3v-1.3h0.8v-2.3H5.8z"/>
<path class="st9" d="m7.9 298c0.2-0.2 0.4-0.3 0.6-0.3s0.4 0.1 0.6 0.3 0.3 0.4 0.3 0.6c0 0.3-0.1 0.5-0.3 0.6s-0.4 0.3-0.6 0.3-0.4-0.1-0.6-0.2c-0.2-0.2-0.3-0.4-0.3-0.6 0.1-0.3 0.2-0.5 0.3-0.7z"/>
<path class="st9" d="m15.3 294.4c0.3 0.3 0.5 0.7 0.5 1.2v4h-1.7v-3.4c0-0.5-0.3-0.8-0.8-0.8-0.4 0-0.7 0.2-0.9 0.6s-0.3 0.8-0.3 1.4v2.2h-1.7v-9.7h1.6v5.2c0.2-0.3 0.5-0.6 0.8-0.8s0.7-0.3 1.2-0.3c0.5-0.1 0.9 0.1 1.3 0.4z"/>
<path class="st9" d="M19.7,291.8v2.3h1.3v1.3h-1.3v4.1H18v-4.1h-0.8v-1.3H18v-2.3H19.7z"/>
<path class="st9" d="m30.3 294.3c0.3 0.3 0.5 0.7 0.5 1.2v4h-1.7v-3.3c0-0.3-0.1-0.5-0.1-0.6-0.1-0.1-0.2-0.2-0.4-0.2-0.4 0-0.7 0.2-0.9 0.6s-0.3 0.8-0.3 1.4v2.2h-1.7v-3.3c0-0.3-0.1-0.5-0.1-0.6-0.1-0.1-0.2-0.2-0.4-0.2-0.4 0-0.7 0.2-0.9 0.6s-0.3 0.8-0.3 1.4v2.2h-1.7v-5.4h1.5l0.1 0.9c0.4-0.7 1-1.1 1.9-1.1 0.4 0 0.8 0.1 1 0.3 0.3 0.2 0.5 0.4 0.6 0.8 0.2-0.3 0.5-0.6 0.8-0.8s0.6-0.3 0.9-0.3c0.5-0.2 0.9-0.1 1.2 0.2z"/>
<path class="st9" d="m34.2 289.8v9.7h-1.7v-9.7h1.7z"/>
</g>
</svg>
