<?xml version="1.0" encoding="utf-8"?>
<!-- Generator: Adobe Illustrator 19.0.0, SVG Export Plug-In . SVG Version: 6.00 Build 0)  -->
<svg version="1.1" id="Layer_1" xmlns="http://www.w3.org/2000/svg" xmlns:xlink="http://www.w3.org/1999/xlink" x="0px" y="0px"
	 viewBox="-206 247.4 547 67.6" style="enable-background:new -206 247.4 547 67.6;" xml:space="preserve">
<style type="text/css">
	.st0{fill:#475357;}
	.st1{fill:#EAEAEA;}
	.st2{opacity:0.3;fill:#010101;enable-background:new    ;}
	.st3{fill:#475568;}
	.st4{opacity:0.3;}
	.st5{fill:#010101;}
	.st6{fill:#70B44A;}
	.st7{fill:#DDAB54;}
	.st8{fill:#D6655D;}
	.st9{fill:#A09F9F;}
	.st10{fill:#FFFFFF;}
	.st11{fill:#DCDBDB;}
	.st12{fill:#BABABA;}
	.st13{font-family:'Lato';}
	.st14{font-size:4.8652px;}
	.st15{opacity:0.44;fill:#010101;enable-background:new    ;}
	.st16{opacity:0.19;fill:#010101;enable-background:new    ;}
	.st17{display:none;opacity:0.45;enable-background:new    ;}
	.st18{opacity:0.2;fill:#7D7B7C;enable-background:new    ;}
	.st19{font-family:'Josefin Sans'; font-weight: bold}
	.st20{font-size:11.6243px;}
	.st21{fill:#E54D3B;}
	.st22{fill:#4571B8;}
</style>
<g id="Browser-Dark">
	<path class="st0" d="M340.8,274.6v-22.2c0-2.8-2.2-5-5-5h-536.7c-2.8,0-5,2.2-5,5v22.2H340.8z"/>
	<rect x="-205.9" y="274.6" class="st1" width="546.8" height="40.4"/>
	<path class="st2" d="M-172.7,299.8c0.4-0.4,4.4-4.6,4.4-4.6c0.2-0.2,0.3-0.5,0.3-0.8s-0.1-0.6-0.3-0.8c0,0-4-4.2-4.4-4.6
		c-0.4-0.4-1.1-0.4-1.6,0c-0.4,0.4-0.5,1,0,1.5l3.6,3.8l-3.6,3.8c-0.5,0.5-0.4,1.1,0,1.5C-173.9,300.2-173.1,300.2-172.7,299.8z"/>
	<path class="st2" d="M-191.3,289.3c-0.4,0.4-4.4,4.6-4.4,4.6c-0.2,0.2-0.3,0.5-0.3,0.7c0,0.3,0.1,0.6,0.3,0.8c0,0,4,4.2,4.4,4.6
		c0.4,0.4,1.1,0.4,1.6,0c0.4-0.4,0.5-1,0-1.5l-3.6-3.8l3.6-3.8c0.5-0.5,0.4-1.1,0-1.5C-190.1,288.9-190.9,288.9-191.3,289.3z"/>
	<path class="st1" d="M-204.9,274.8c7.4,0,7.1-18.9,13.2-18.9h70.2c7.4,0,7.1,18.9,13.2,18.9H-204.9z"/>
	<g>
		<g>
			<path class="st3" d="M-121.7,267.3l-1.2-1.3l1.2-1.3c0.2-0.2,0.2-0.5,0-0.7s-0.5-0.2-0.7,0l-1.1,1.3l-1.1-1.3
				c-0.2-0.2-0.5-0.2-0.7,0s-0.2,0.5,0,0.7l1.2,1.3l-1.2,1.3c-0.2,0.2-0.2,0.5,0,0.7s0.5,0.2,0.7,0l1.1-1.3l1.1,1.3
				c0.2,0.2,0.5,0.2,0.7,0C-121.5,267.9-121.5,267.5-121.7,267.3z"/>
		</g>
	</g>
	<g class="st4">
		<g>
			<path class="st5" d="M-147.9,288.7c2.9,0,5.2,2.3,5.3,5.2h1.6l-2.4,2.7l-2.4-2.7h1.9c-0.1-2.1-1.8-3.9-4-3.9s-4,1.8-4,4
				s1.8,4,4,4c0.9,0,1.7-0.3,2.4-0.8l0.9,1c-0.9,0.7-2,1.1-3.3,1.1c-2.9,0-5.3-2.4-5.3-5.3C-153.2,291.1-150.8,288.7-147.9,288.7z"
				/>
		</g>
	</g>
	<circle class="st6" cx="288.4" cy="260.8" r="5.6"/>
	<circle class="st7" cx="307.4" cy="260.8" r="5.6"/>
	<circle class="st8" cx="326.5" cy="260.8" r="5.6"/>
	<g>
		<path class="st9" d="M318.9,294.9h-11.7c-0.5,0-1,0.5-1,1.2c0,0.6,0.4,1.2,1,1.2h11.7c0.5,0,1-0.5,1-1.2S319.5,294.9,318.9,294.9z
			 M307.2,292.6h11.7c0.5,0,1-0.5,1-1.2c0-0.6-0.4-1.2-1-1.2h-11.7c-0.5,0-1,0.5-1,1.2S306.7,292.6,307.2,292.6z M318.9,299.5h-11.7
			c-0.5,0-1,0.5-1,1.2c0,0.6,0.4,1.2,1,1.2h11.7c0.5,0,1-0.5,1-1.2S319.5,299.5,318.9,299.5z"/>
	</g>
	<path class="st10" d="M287.7,304.2c0,1.6-1.3,3-3,3l-411.6-1c-1.6,0-3-1.3-3-3v-16.4c0-1.6,1.3-3,3-3l411.6,1c1.6,0,3,1.3,3,3
		V304.2z"/>
	<path class="st11" d="M-116.4,288.6h-6c-0.1,0-0.1,0.1-0.1,0.2v12c0,0.1,0.1,0.2,0.1,0.2h9.1c0.1,0,0.1-0.1,0.1-0.2V292
		L-116.4,288.6z"/>
	<path class="st12" d="M-116.4,288.6L-116.4,288.6l3.3,3.4h-3c0,0-0.2,0-0.2-0.3C-116.4,291.4-116.4,288.6-116.4,288.6"/>
</g>
<text transform="matrix(1.0258 0 0 1 -182.7065 268.2021)" class="st5 st13 st14">Suresh Vyas - Web </text>
<text transform="matrix(1.0258 0 0 1 -140.9565 268.2021)" class="st15 st13 st14">de</text>
<text transform="matrix(1.0258 0 0 1 -135.6226 268.2021)" class="st16 st13 st14">s</text>
<g id="XMLID_52_" class="st17">
</g>
<text id="XMLID_51_" transform="matrix(1.0258 0 0 1 -139.6851 268.2021)" class="st18 st13 st14">t</text>
<text transform="matrix(0.9656 0 0 1 -102.4307 299.3311)" class="st9 st19 st20">Thing</text>
<text transform="matrix(0.9656 0 0 1 -72.2075 299.3311)" class="st21 st19 st20">s</text>
<text transform="matrix(0.9656 0 0 1 -67.186 299.3311)" class="st9 st19 st20"> I Have Buil</text>
<text transform="matrix(0.9656 0 0 1 -4.1323 299.3311)" class="st22 st19 st20">t</text>
<text transform="matrix(0.9656 0 0 1 0.3091 299.3311)" class="st9 st19 st20">.html</text>
</svg>
