<?xml version="1.0" encoding="utf-8"?>
<!-- Generator: Adobe Illustrator 19.0.0, SVG Export Plug-In . SVG Version: 6.00 Build 0)  -->
<svg version="1.1" id="Layer_1" xmlns="http://www.w3.org/2000/svg" xmlns:xlink="http://www.w3.org/1999/xlink" x="0px" y="0px"
	 viewBox="0 0 547 342.8" style="enable-background:new 0 0 547 342.8;" xml:space="preserve">
<style type="text/css">
	.st0{fill:#475357;}
	.st1{fill:#FFFFFF;}
	.st2{fill:#EAEAEA;}
	.st3{opacity:0.3;fill:#010101;}
	.st4{fill:none;stroke:#00A14B;stroke-width:0.25;stroke-miterlimit:10;}
	.st5{fill:#475568;}
	.st6{opacity:0.3;}
	.st7{fill:#010101;}
	.st8{fill:#70B44A;}
	.st9{fill:#DDAB54;}
	.st10{fill:#D6655D;}
	.st11{font-family:'FontAwesome';}
	.st12{font-size:17.5841px;}
	.st13{fill:#A09F9F;}
	.st14{fill:#A5A4A4;}
	.st15{fill:#DCDBDB;}
	.st16{fill:#BABABA;}
	.st17{opacity:0.7;fill:#475357;}
	.st18{font-family:'Lato';}
	.st19{font-size:5px;}
	.st20{enable-background:new    ;}
	.st21{font-family:'Lato';}
	.st22{font-size:4.8652px;}
	.st23{opacity:0.44;fill:#010101;}
	.st24{opacity:0.19;fill:#010101;}
	.st25{opacity:0.45;fill:#7D7B7C;enable-background:new    ;}
	.st26{opacity:0.2;fill:#7D7B7C;enable-background:new    ;}
	.st27{font-family:'Josefin Sans'; font-weight: 900}
	.st28{font-size:11.6243px;}
	.st29{fill:#E54D3B;}
	.st30{fill:#4571B8;}
</style>
<g id="Browser-Dark">
	<path class="st0" d="M546.7,27.2V5c0-2.8-2.2-5-5-5H5C2.2,0,0,2.2,0,5v22.2H546.7z"/>
	<g id="XMLID_1_">
		<g>
			<path class="st1" d="M546.7,54.1v283.4c0,2.8-2.2,5-5,5H5c-2.8,0-5-2.2-5-5V54.1c0-2.8,2.2-5,5-5h536.7
				C544.5,49.1,546.7,51.4,546.7,54.1z"/>
		</g>
		<g>
		</g>
	</g>
	<rect x="0" y="27.2" class="st2" width="546.8" height="40.4"/>
	<path class="st3" d="M33.2,52.4c0.4-0.4,4.4-4.6,4.4-4.6c0.2-0.2,0.3-0.5,0.3-0.8c0-0.3-0.1-0.6-0.3-0.8c0,0-4-4.2-4.4-4.6
		c-0.4-0.4-1.1-0.4-1.6,0c-0.4,0.4-0.5,1,0,1.5l3.6,3.8l-3.6,3.8c-0.5,0.5-0.4,1.1,0,1.5C32,52.8,32.8,52.8,33.2,52.4z"/>
	<path class="st3" d="M14.6,41.9c-0.4,0.4-4.4,4.6-4.4,4.6C10,46.7,9.9,47,9.9,47.2c0,0.3,0.1,0.6,0.3,0.8c0,0,4,4.2,4.4,4.6
		c0.4,0.4,1.1,0.4,1.6,0c0.4-0.4,0.5-1,0-1.5l-3.6-3.8l3.6-3.8c0.5-0.5,0.4-1.1,0-1.5C15.8,41.5,15,41.5,14.6,41.9z"/>
	<path class="st4" d="M356.3,62.6"/>
	<path class="st4" d="M327.9,113.1"/>
	<g>
		<g>
			<path class="st5" d="M168.1,19l-1.2-1.3l1.2-1.3c0.2-0.2,0.2-0.5,0-0.7c-0.2-0.2-0.5-0.2-0.7,0l-1.1,1.3l-1.1-1.3
				c-0.2-0.2-0.5-0.2-0.7,0c-0.2,0.2-0.2,0.5,0,0.7l1.2,1.3l-1.2,1.3c-0.2,0.2-0.2,0.5,0,0.7c0.2,0.2,0.5,0.2,0.7,0l1.1-1.3l1.1,1.3
				c0.2,0.2,0.5,0.2,0.7,0C168.3,19.5,168.3,19.2,168.1,19z"/>
		</g>
	</g>
	<path class="st2" d="M1,27.4c7.4,0,7.1-18.9,13.2-18.9l70.2,0c7.4,0,7.1,18.9,13.2,18.9L1,27.4z"/>
	<g>
		<g>
			<path class="st5" d="M84.2,19.9L83,18.6l1.2-1.3c0.2-0.2,0.2-0.5,0-0.7c-0.2-0.2-0.5-0.2-0.7,0l-1.1,1.3l-1.1-1.3
				c-0.2-0.2-0.5-0.2-0.7,0c-0.2,0.2-0.2,0.5,0,0.7l1.2,1.3l-1.2,1.3c-0.2,0.2-0.2,0.5,0,0.7c0.2,0.2,0.5,0.2,0.7,0l1.1-1.3l1.1,1.3
				c0.2,0.2,0.5,0.2,0.7,0C84.4,20.5,84.4,20.1,84.2,19.9z"/>
		</g>
	</g>
	<g class="st6">
		<g>
			<path class="st7" d="M58,41.3c2.9,0,5.2,2.3,5.3,5.2h1.6l-2.4,2.7l-2.4-2.7H62c-0.1-2.1-1.8-3.9-4-3.9c-2.2,0-4,1.8-4,4
				c0,2.2,1.8,4,4,4c0.9,0,1.7-0.3,2.4-0.8l0.9,1c-0.9,0.7-2,1.1-3.3,1.1c-2.9,0-5.3-2.4-5.3-5.3C52.7,43.7,55.1,41.3,58,41.3z"/>
		</g>
	</g>
	<path class="st4" d="M333.4,250.6"/>
	<circle class="st8" cx="494.3" cy="13.4" r="5.6"/>
	<circle class="st9" cx="513.3" cy="13.4" r="5.6"/>
	<circle class="st10" cx="532.4" cy="13.4" r="5.6"/>
	<text transform="matrix(1 0 0 1 418.5961 226.2022)" class="st1 st11 st12"></text>
	<g>
		<path class="st13" d="M524.8,47.5h-11.7c-0.5,0-1,0.5-1,1.2c0,0.6,0.4,1.2,1,1.2h11.7c0.5,0,1-0.5,1-1.2
			C525.8,48,525.4,47.5,524.8,47.5z M513.1,45.2h11.7c0.5,0,1-0.5,1-1.2c0-0.6-0.4-1.2-1-1.2h-11.7c-0.5,0-1,0.5-1,1.2
			C512.1,44.7,512.6,45.2,513.1,45.2z M524.8,52.1h-11.7c-0.5,0-1,0.5-1,1.2c0,0.6,0.4,1.2,1,1.2h11.7c0.5,0,1-0.5,1-1.2
			C525.8,52.6,525.4,52.1,524.8,52.1z"/>
	</g>
	<g>
		<g>
			<path class="st14" d="M318,80.7"/>
		</g>
	</g>
	<g>
	</g>
	<path class="st1" d="M493.6,56.8c0,1.6-1.3,3-3,3L79,58.8c-1.6,0-3-1.3-3-3V39.4c0-1.6,1.3-3,3-3l411.6,1c1.6,0,3,1.3,3,3V56.8z"/>
	<path class="st15" d="M89.5,41.2h-6c-0.1,0-0.1,0.1-0.1,0.2v12c0,0.1,0.1,0.2,0.1,0.2h9.1c0.1,0,0.1-0.1,0.1-0.2v-8.8L89.5,41.2z"
		/>
	<path class="st16" d="M89.5,41.2L89.5,41.2l3.3,3.4l-3,0c0,0-0.2,0-0.2-0.3C89.5,44,89.5,41.2,89.5,41.2"/>
	<text transform="matrix(1 0 0 1 103.4687 19.8838)" class="st17 st18 st19">New Tab</text>
</g>
<text id="XMLID_53_" transform="matrix(1.0258 0 0 1 23.1926 20.8019)" class="st20"><tspan x="0" y="0" class="st7 st21 st22">Suresh Vyas - Web </tspan><tspan x="40.7" y="0" class="st23 st21 st22">de</tspan><tspan x="45.9" y="0" class="st24 st21 st22">s</tspan></text>
<text id="XMLID_52_" transform="matrix(1.0258 0 0 1 63.4192 20.8019)" class="st25 st21 st22">n</text>
<text id="XMLID_51_" transform="matrix(1.0258 0 0 1 66.2141 20.8019)" class="st26 st21 st22">t</text>
<text id="XMLID_45_" transform="matrix(0.9656 0 0 1 103.4687 51.9307)"><tspan x="0" y="0" class="st13 st27 st28">Thing</tspan><tspan x="31.3" y="0" class="st29 st27 st28">s</tspan><tspan x="36.5" y="0" class="st13 st27 st28"> I have buil</tspan><tspan x="99" y="0" class="st30 st27 st28">t</tspan><tspan x="103.6" y="0" class="st13 st27 st28">.html           </tspan></text>
</svg>
