<?xml version="1.0" encoding="utf-8"?>
<!-- Generator: Adobe Illustrator 19.0.0, SVG Export Plug-In . SVG Version: 6.00 Build 0)  -->
<svg version="1.1" id="Layer_1" xmlns="http://www.w3.org/2000/svg" xmlns:xlink="http://www.w3.org/1999/xlink" x="0px" y="0px"
	 viewBox="-272.3 240 266.7 90.7" style="enable-background:new -272.3 240 266.7 90.7;" xml:space="preserve">
<style type="text/css">
	.bluesvg{fill:#3473DB;}
	.redsvg{fill:#E74C3C;}
</style>
<g>
	<path class="bluesvg" d="M-267.1,299.8l48.2,27.7v2.6l-52.6-30.3l52.6-30.3v2.6L-267.1,299.8z"/>
	<path class="bluesvg" d="M-199.7,330.6h-2.3l33.3-90.6h2.3L-199.7,330.6z"/>
	<path class="redsvg" d="M-152.2,327.9c-2.6-1-4.7-2.4-6.3-4.3l1.4-1.4c1.2,1.5,2.9,2.8,5.2,3.7s4.7,1.4,7.4,1.4c3.3,0,6.1-0.8,8.4-2.5
		c2.3-1.7,3.5-4.4,3.5-8c0-2.2-0.6-4.1-1.8-5.5c-1.2-1.4-2.6-2.5-4.2-3.2c-1.6-0.7-3.9-1.6-6.9-2.5c-3.6-1.3-6.4-2.7-8.3-4.4
		c-1.9-1.6-2.9-4.1-2.9-7.3c0-3.6,1.2-6.4,3.7-8.4c2.4-2,5.3-3.1,8.7-3.1c2.1,0,4.3,0.4,6.5,1.3c2.3,0.9,4.2,2.2,5.8,4l-1.3,1.6
		c-1.2-1.5-2.9-2.7-5-3.5c-2.1-0.8-4.1-1.2-5.9-1.2c-2.5,0-4.8,0.8-7,2.3c-2.2,1.6-3.2,3.8-3.2,6.8c0,2.6,0.9,4.6,2.6,6
		c1.7,1.4,4.3,2.6,7.6,3.8c3.3,1.1,5.8,2.1,7.5,2.9c1.7,0.8,3.2,2,4.5,3.5c1.3,1.6,1.9,3.6,1.9,6.2c0,4.1-1.2,7.3-3.7,9.6
		c-2.4,2.4-5.9,3.5-10.5,3.5C-147,329.3-149.6,328.8-152.2,327.9z"/>
	<path class="redsvg" d="M-76.1,283l-21.3,47.3h-0.7l-21.5-47.3h2.6l19.2,43l19.2-43H-76.1z"/>
	<path class="bluesvg" d="M-10.3,299.8l-48.1-27.7v-2.6l52.5,30.3l-52.5,30.3v-2.6L-10.3,299.8z"/>
</g>
</svg>
