<?xml version="1.0" encoding="utf-8"?>
<!-- Generator: Adobe Illustrator 19.0.0, SVG Export Plug-In . SVG Version: 6.00 Build 0)  -->
<svg version="1.1" id="Layer_1" xmlns="http://www.w3.org/2000/svg" xmlns:xlink="http://www.w3.org/1999/xlink" x="0px" y="0px"
	 viewBox="-346 237.8 264 85.5" style="enable-background:new -346 237.8 264 85.5;" xml:space="preserve">
<style type="text/css">
	.blueSvg{fill:#3473DB;}
	.redSvg{fill:#E74C3C;}
</style>
<g>
	<path class="blueSvg" d="M-324.6,294.3l29.1,17.1v11.3l-49-28.4l49-28.3v11.3L-324.6,294.3z"/>
	<path class="blueSvg" d="M-273.4,323.1h-9.4c9.3-25.1,16.3-44,20.8-56.5l10.4-28.3h9.4L-273.4,323.1z"/>
	<path class="redSvg" d="M-229.8,320.2c-3.1-1.2-5.6-2.9-7.5-5.2l4.4-6c1.8,1.8,3.8,3.1,5.8,4.1c2,1,4,1.4,6,1.4c2.4,0,4.4-0.5,6-1.4
		c1.6-1,2.3-2.4,2.3-4.4c0-1.6-0.5-2.8-1.4-3.8c-1-1-2.1-1.7-3.3-2.1c-1.2-0.4-3.3-1.1-6.2-2c-7.8-2.5-11.7-7-11.7-13.4
		c0-3.8,1.4-7.1,4.3-9.9c2.8-2.7,6.8-4.1,11.9-4.1c3.3,0,6.1,0.4,8.6,1.2c2.5,0.8,4.8,2.1,7,3.9l-4.1,6.3c-1.2-1.3-2.7-2.3-4.5-3
		c-1.8-0.7-3.5-1.1-5.2-1.2c-2.1,0-3.8,0.5-5.3,1.5c-1.5,1-2.2,2.3-2.2,4c0,1.4,0.5,2.6,1.4,3.5c1,0.9,2,1.6,3,2
		c1,0.4,3.1,1.1,6.1,2c3.8,1.3,6.7,2.9,8.8,4.9c2.1,2,3.2,4.7,3.2,8.1c0,4.4-1.6,8.1-4.7,11c-3.1,2.9-7.5,4.3-13.2,4.3
		C-223.5,322-226.7,321.4-229.8,320.2z"/>
	<path class="redSvg" d="M-144.2,275.1l-24.5,47.2h-0.6l-25.5-47.2h12.3l13.9,29.3l12.9-29.3H-144.2z"/>
	<path class="blueSvg" d="M-102.5,294.3l-29.3-17.1V266l49.1,28.3l-49.1,28.4v-11.4L-102.5,294.3z"/>
</g>
</svg>
