<svg viewBox="-206 247.4 547 67.6" xmlns="http://www.w3.org/2000/svg"><title>Chrome Browser</title><style>.st0{fill:#475357}.st1{fill:#eaeaea}.st2{opacity:.3;fill:#010101;enable-background:new}.st3{fill:#475568}.st4{opacity:.3}.st5{fill:#010101}.st6{fill:#70b44a}.st7{fill:#ddab54}.st8{fill:#d6655d}.st9{fill:#a09f9f}.st10{fill:#fff}.st11{fill:#dcdbdb}.st12{fill:#bababa}.st13,.st14,.st15,.st16{enable-background:new}.st14,.st15,.st16{opacity:.44}.st15,.st16{opacity:.19}.st16{display:none;opacity:.45}.st17{fill:#e74c3c}.st18{fill:#3473db}</style><path class="st0" d="M340.8 274.6v-22.2c0-2.8-2.2-5-5-5h-536.7c-2.8 0-5 2.2-5 5v22.2h546.7z"/><path class="st1" d="M-205.9 274.6h546.8V315h-546.8z"/><path class="st2" d="M-172.7 299.8c.4-.4 4.4-4.6 4.4-4.6.2-.2.3-.5.3-.8s-.1-.6-.3-.8c0 0-4-4.2-4.4-4.6s-1.1-.4-1.6 0c-.4.4-.5 1 0 1.5l3.6 3.8-3.6 3.8c-.5.5-.4 1.1 0 1.5.4.6 1.2.6 1.6.2zM-191.3 289.3c-.4.4-4.4 4.6-4.4 4.6-.2.2-.3.5-.3.7 0 .3.1.6.3.8 0 0 4 4.2 4.4 4.6s1.1.4 1.6 0c.4-.4.5-1 0-1.5l-3.6-3.8 3.6-3.8c.5-.5.4-1.1 0-1.5-.4-.5-1.2-.5-1.6-.1z"/><path class="st1" d="M-204.9 274.8c7.4 0 7.1-18.9 13.2-18.9h70.2c7.4 0 7.1 18.9 13.2 18.9h-96.6z"/><path class="st3" d="M-121.7 267.3l-1.2-1.3 1.2-1.3c.2-.2.2-.5 0-.7s-.5-.2-.7 0l-1.1 1.3-1.1-1.3c-.2-.2-.5-.2-.7 0s-.2.5 0 .7l1.2 1.3-1.2 1.3c-.2.2-.2.5 0 .7s.5.2.7 0l1.1-1.3 1.1 1.3c.2.2.5.2.7 0 .2-.1.2-.5 0-.7z"/><g class="st4"><path class="st5" d="M-147.9 288.7c2.9 0 5.2 2.3 5.3 5.2h1.6l-2.4 2.7-2.4-2.7h1.9c-.1-2.1-1.8-3.9-4-3.9s-4 1.8-4 4 1.8 4 4 4c.9 0 1.7-.3 2.4-.8l.9 1c-.9.7-2 1.1-3.3 1.1-2.9 0-5.3-2.4-5.3-5.3s2.4-5.3 5.3-5.3z"/></g><circle class="st6" cx="288.4" cy="260.8" r="5.6"/><circle class="st7" cx="307.4" cy="260.8" r="5.6"/><circle class="st8" cx="326.5" cy="260.8" r="5.6"/><path class="st9" d="M318.9 294.9h-11.7c-.5 0-1 .5-1 1.2 0 .6.4 1.2 1 1.2h11.7c.5 0 1-.5 1-1.2s-.4-1.2-1-1.2zm-11.7-2.3h11.7c.5 0 1-.5 1-1.2 0-.6-.4-1.2-1-1.2h-11.7c-.5 0-1 .5-1 1.2s.5 1.2 1 1.2zm11.7 6.9h-11.7c-.5 0-1 .5-1 1.2 0 .6.4 1.2 1 1.2h11.7c.5 0 1-.5 1-1.2s-.4-1.2-1-1.2z"/><path class="st10" d="M287.7 304.2c0 1.6-1.3 3-3 3l-411.6-1c-1.6 0-3-1.3-3-3v-16.4c0-1.6 1.3-3 3-3l411.6 1c1.6 0 3 1.3 3 3v16.4z"/><path class="st11" d="M-116.4 288.6h-6c-.1 0-.1.1-.1.2v12c0 .1.1.2.1.2h9.1c.1 0 .1-.1.1-.2V292l-3.2-3.4z"/><path class="st12" d="M-116.4 288.6l3.3 3.4h-3s-.2 0-.2-.3c-.1-.3-.1-3.1-.1-3.1"/><g class="st13"><path class="st5" d="M-180.4 265.3c-.1 0-.1 0 0 0l-.1.1h-.1l-.1-.1c-.1 0-.1-.1-.2-.1h-.6c-.1 0-.2.1-.2.1s-.1.1-.1.2v.2c0 .1 0 .2.1.2 0 .1.1.1.2.2.1 0 .2.1.3.1s.2.1.3.1.2.1.3.1.2.1.3.2.1.2.2.3c0 .1.1.2.1.4s0 .3-.1.4-.1.3-.2.3c-.1.1-.2.2-.4.2-.1.1-.3.1-.5.1s-.4 0-.6-.1-.4-.2-.5-.3l.1-.2h.1s.1 0 .1.1c0 0 .1.1.2.1s.1.1.2.1.2.1.4.1h.3l.2-.1c.1-.1.1-.1.1-.2v-.3c0-.1 0-.2-.1-.3 0-.1-.1-.1-.2-.2-.1 0-.2-.1-.3-.1s-.2-.1-.3-.1-.2-.1-.3-.1-.2-.1-.3-.2-.1-.2-.2-.3c0-.1-.1-.2-.1-.4 0-.1 0-.2.1-.4 0-.1.1-.2.2-.3s.2-.2.3-.2c.1-.1.3-.1.5-.1s.4 0 .5.1c.2.1.3.2.4.3v.1z"/><path class="st5" d="M-179.3 265.7v1.6c0 .2 0 .3.1.4s.2.2.4.2c.1 0 .3 0 .4-.1s.2-.1.3-.3v-1.8h.4v2.5h-.3c-.1 0-.1 0-.1-.1v-.3c-.1.1-.2.2-.4.3-.1.1-.3.1-.5.1-.1 0-.3 0-.4-.1-.1 0-.2-.1-.3-.2s-.1-.2-.2-.3c0-.1-.1-.2-.1-.4v-1.6h.7zM-176.9 268.2v-2.5h.4v.5c.1-.2.2-.3.3-.4s.3-.1.4-.1h.2s.1 0 .2.1l-.1.3s0 .1-.1.1H-175.9c-.2 0-.3 0-.4.1s-.2.2-.3.4v1.6h-.3zM-173.9 265.7c.2 0 .3 0 .4.1.1 0 .2.1.3.2s.2.2.2.3c.1.1.1.3.1.5v.1h-1.8c0 .2 0 .3.1.4 0 .1.1.2.2.3s.2.1.2.2c.1 0 .2.1.3.1h.3c.1 0 .2-.1.2-.1l.1-.1h.2l.1.2-.2.2c-.1 0-.2.1-.2.1-.1 0-.2.1-.3.1h-.3c-.2 0-.3 0-.5-.1-.1-.1-.3-.1-.4-.3-.1-.1-.2-.2-.3-.4s-.1-.4-.1-.6 0-.3.1-.5c.1-.1.1-.3.2-.4s.2-.2.4-.3h.7zm0 .3c-.2 0-.4.1-.5.2s-.2.3-.2.5h1.4v-.3l-.1-.2c-.1-.1-.1-.1-.2-.1-.2-.1-.3-.1-.4-.1zM-170.8 266.1c-.1.1-.1.1 0 0-.1.1-.1 0-.2 0 0 0-.1 0-.1-.1 0 0-.1 0-.2-.1h-.4c-.1 0-.1 0-.2.1l-.1.1v.1c0 .1 0 .1.1.2l.1.1c.1 0 .1.1.2.1s.2 0 .2.1.2.1.2.1c.1 0 .1.1.2.1s.1.1.1.2.1.2.1.3 0 .2-.1.3c0 .1-.1.2-.2.3s-.2.1-.3.2-.3.1-.4.1c-.2 0-.3 0-.5-.1-.1-.1-.3-.1-.4-.2l.1-.2h.2s.1 0 .1.1c0 0 .1.1.2.1h.5s.1-.1.2-.1l.1-.1v-.2c0-.1 0-.1-.1-.2l-.1-.1c-.1 0-.1-.1-.2-.1s-.2 0-.2-.1c-.1 0-.2-.1-.2-.1-.1 0-.1-.1-.2-.1s-.1-.1-.1-.2-.1-.2-.1-.3 0-.2.1-.3c0-.1.1-.2.2-.2.1-.1.2-.1.3-.2.1 0 .2-.1.4-.1s.3 0 .4.1.2.1.3.2v.2zM-170.1 268.2v-3.6h.4v1.4c.1-.1.2-.2.4-.3.1-.1.3-.1.5-.1.1 0 .3 0 .4.1.1 0 .2.1.3.2s.1.2.2.3c0 .1.1.2.1.4v1.6h-.4v-1.6c0-.2 0-.3-.1-.4s-.2-.2-.4-.2c-.1 0-.3 0-.4.1s-.2.1-.3.3v1.8h-.7zM-166.7 264.7h.5l.1.1 1 2.5c0 .1 0 .1.1.2 0 .1 0 .1.1.2v-.2c0-.1 0-.1.1-.2l1-2.5s0-.1.1-.1h.5l-1.5 3.5h-.4l-1.6-3.5zM-162.4 268.9c-.1.1-.1.1-.2.1h-.3l.5-1-1-2.3h.5v.1l.7 1.6v.2-.1-.1l.7-1.5.1-.1h.5l-1.5 3.1zM-158.7 268.2H-159l-.1-.1-.1-.2-.2.2c-.1 0-.1.1-.2.1s-.1.1-.2.1h-.6c-.1 0-.2-.1-.2-.1l-.2-.2c0-.1-.1-.2-.1-.3s0-.2.1-.3.1-.2.3-.2.3-.1.5-.2c.2 0 .4-.1.7-.1v-.2c0-.2 0-.3-.1-.4s-.2-.1-.4-.1h-.3c-.1 0-.1.1-.2.1s-.1.1-.1.1h-.2l-.2-.2c.1-.1.3-.2.5-.3s.3-.1.5-.1c.1 0 .3 0 .4.1s.2.1.3.2.1.2.2.3c0 .1.1.2.1.4v1.4zm-1.2-.3h.2c.1 0 .1 0 .2-.1.1 0 .1-.1.2-.1s.1-.1.2-.1v-.5h-.5l-.3.1c-.1 0-.2.1-.2.1 0 .1-.1.1-.1.2v.2l.1.1.1.1h.1zM-156.6 266.1c-.1.1-.1 0-.2 0 0 0-.1 0-.1-.1 0 0-.1 0-.2-.1h-.4c-.1 0-.1 0-.2.1l-.1.1v.1c0 .1 0 .1.1.2l.1.1c.1 0 .1.1.2.1s.2 0 .2.1.2.1.2.1c.1 0 .1.1.2.1s.1.1.1.2.1.2.1.3 0 .2-.1.3c0 .1-.1.2-.2.3s-.2.1-.3.2-.3.1-.4.1c-.2 0-.3 0-.5-.1-.1-.1-.3-.1-.4-.2l.1-.2h.2s.1 0 .1.1c0 0 .1.1.2.1h.5s.1-.1.2-.1l.1-.1v-.2c0-.1 0-.1-.1-.2l-.1-.1c-.1 0-.1-.1-.2-.1s-.2 0-.2-.1c-.1 0-.2-.1-.2-.1-.1 0-.1-.1-.2-.1s-.1-.1-.1-.2-.1-.2-.1-.3 0-.2.1-.3c0-.1.1-.2.2-.2.1-.1.2-.1.3-.2.1 0 .2-.1.4-.1s.3 0 .4.1.2.1.3.2v.2zM-155 266.6h1.2v.4h-1.2v-.4zM-152.5 264.7h.5l.1.1.7 2.4V267.5 267.2l.8-2.4s0-.1.1-.1H-150l.1.1.8 2.4c0 .1.1.2.1.3v-.2-.1l.7-2.4s0-.1.1-.1h.5l-1.1 3.5h-.4l-.9-2.7v-.2.2l-.9 2.7h-.4l-1.1-3.5zM-146.2 265.7c.2 0 .3 0 .4.1.1 0 .2.1.3.2s.2.2.2.3c.1.1.1.3.1.5v.1h-1.8c0 .2 0 .3.1.4 0 .1.1.2.2.3s.2.1.2.2c.1 0 .2.1.3.1h.3c.1 0 .2-.1.2-.1l.1-.1h.2l.1.2-.2.2c-.1 0-.2.1-.2.1-.1 0-.2.1-.3.1h-.3c-.2 0-.3 0-.5-.1-.1-.1-.3-.1-.4-.3-.1-.1-.2-.2-.3-.4s-.1-.4-.1-.6 0-.3.1-.5c.1-.1.1-.3.2-.4s.2-.2.4-.3h.7zm0 .3c-.2 0-.4.1-.5.2s-.2.3-.2.5h1.4v-.3l-.1-.2c-.1-.1-.1-.1-.2-.1-.2-.1-.3-.1-.4-.1zM-144.6 268.2v-3.6h.4v1.5c.1-.1.2-.2.4-.3.1-.1.3-.1.5-.1.1 0 .3 0 .4.1s.2.1.3.2.1.2.2.4c0 .2.1.3.1.5s0 .4-.1.5c0 .2-.1.3-.2.4l-.3.3c-.1.1-.3.1-.5.1s-.3 0-.4-.1-.2-.1-.3-.3v.2c0 .1-.1.1-.1.1h-.4zm1.2-2.2c-.1 0-.3 0-.4.1l-.3.3v1.2c.1.1.2.2.3.2s.2.1.3.1c.2 0 .4-.1.5-.2.1-.2.2-.4.2-.7v-.4c0-.1-.1-.2-.1-.3l-.2-.2c-.2 0-.2-.1-.3-.1z"/></g><g class="st14"><path class="st5" d="M-138.8 268.2c-.1 0-.1 0-.1-.1v-.3c-.1.1-.2.2-.4.3-.1.1-.3.1-.5.1-.1 0-.3 0-.4-.1s-.2-.1-.3-.2-.1-.2-.2-.4-.1-.3-.1-.5 0-.4.1-.5c0-.2.1-.3.2-.4l.3-.3c.1-.1.3-.1.5-.1s.3 0 .4.1.2.1.3.2v-1.4h.4v3.6h-.2zm-.9-.3c.1 0 .3 0 .4-.1l.3-.3v-1.2c-.1-.1-.2-.2-.3-.2s-.2-.1-.3-.1c-.2 0-.4.1-.5.2-.1.2-.2.4-.2.7v.4c0 .1.1.2.1.3l.2.2c.1.1.2.1.3.1zM-136.8 265.7c.2 0 .3 0 .4.1.1 0 .2.1.3.2s.2.2.2.3c.1.1.1.3.1.5v.1h-1.8c0 .2 0 .3.1.4 0 .1.1.2.2.3s.2.1.2.2c.1 0 .2.1.3.1h.3c.1 0 .2-.1.2-.1l.1-.1h.2l.1.2-.2.2c-.1 0-.2.1-.2.1-.1 0-.2.1-.3.1h-.3c-.2 0-.3 0-.5-.1-.1-.1-.3-.1-.4-.3-.1-.1-.2-.2-.3-.4s-.1-.4-.1-.6 0-.3.1-.5c.1-.1.1-.3.2-.4s.2-.2.4-.3h.7zm0 .3c-.2 0-.4.1-.5.2s-.2.3-.2.5h1.4v-.3l-.1-.2c-.1-.1-.1-.1-.2-.1-.2-.1-.3-.1-.4-.1z"/></g><g class="st15"><path class="st5" d="M-133.8 266.1c0 .1-.1.1 0 0-.1.1-.1 0-.2 0 0 0-.1 0-.1-.1 0 0-.1 0-.2-.1h-.4c-.1 0-.1 0-.2.1l-.1.1v.1c0 .1 0 .1.1.2l.1.1c.1 0 .1.1.2.1s.2 0 .2.1.2.1.2.1c.1 0 .1.1.2.1s.1.1.1.2.1.2.1.3 0 .2-.1.3c0 .1-.1.2-.2.3s-.2.1-.3.2-.3.1-.4.1c-.2 0-.3 0-.5-.1-.1-.1-.3-.1-.4-.2l.1-.2h.2s.1 0 .1.1c0 0 .1.1.2.1h.5s.1-.1.2-.1l.1-.1v-.2c0-.1 0-.1-.1-.2l-.1-.1c-.1 0-.1-.1-.2-.1s-.2 0-.2-.1c-.1 0-.2-.1-.2-.1-.1 0-.1-.1-.2-.1s-.1-.1-.1-.2-.1-.2-.1-.3 0-.2.1-.3c0-.1.1-.2.2-.2.1-.1.2-.1.3-.2.1 0 .2-.1.4-.1s.3 0 .4.1.2.1.3.2v.2z"/></g><g class="st13"><path class="st9" d="M-95 290.5v1.7h-2.1v7.4h-1.7v-7.4h-2.1v-1.7h5.9zM-88.7 294.4c.3.3.5.7.5 1.2v4h-1.7v-3.4c0-.5-.3-.8-.8-.8-.4 0-.7.2-.9.6s-.3.8-.3 1.4v2.2h-1.7v-9.7h1.6v5.2c.2-.3.5-.6.8-.8s.7-.3 1.2-.3c.5-.1.9.1 1.3.4zM-86.3 291.6c.2-.2.4-.3.6-.3s.4.1.6.3.3.4.3.6-.1.5-.3.6c-.2.2-.4.2-.6.2s-.5-.1-.6-.2c-.2-.2-.3-.4-.3-.6s.2-.4.3-.6zm1.5 2.6v5.4h-1.7v-5.4h1.7zM-78.3 294.4c.3.3.5.7.5 1.2v4h-1.7v-3.4c0-.5-.3-.8-.8-.8-.4 0-.7.2-.9.6s-.3.8-.3 1.4v2.2h-1.7v-5.4h1.5l.1.9c.2-.4.5-.6.8-.8s.7-.3 1.2-.3c.6-.1 1 .1 1.3.4zM-70.2 294.2v5.4c0 .5-.1 1-.4 1.4s-.7.7-1.1 1c-.5.2-1 .4-1.6.4-.4 0-.8-.1-1.1-.2s-.6-.2-.8-.4c-.2-.1-.4-.3-.7-.5l1-1.2c.2.2.5.4.7.5s.5.2.9.2.8-.1 1.1-.3.4-.5.4-.9v-.8c-.2.3-.4.5-.7.7s-.7.3-1.2.3-.9-.1-1.3-.4-.7-.6-1-1c-.2-.4-.4-.9-.4-1.5 0-.5.1-1 .4-1.5s.6-.8 1-1.1.8-.4 1.3-.4c.4 0 .8.1 1.1.2s.6.3.8.5l.1-.4h1.5zm-1.7 3.3v-1.3c-.1-.3-.3-.5-.6-.6s-.6-.2-.9-.2c-.4 0-.7.1-1 .4s-.4.6-.4 1.1.1.8.4 1.1.6.4 1 .4c.8-.1 1.2-.4 1.5-.9z"/><path class="st17" d="M-68 299.4c-.4-.2-.7-.4-.9-.7l.7-1c.5.4.9.7 1.3.7.2 0 .4 0 .5-.1s.2-.2.2-.3c0-.2-.1-.3-.2-.4-.2-.1-.3-.2-.5-.2-.2-.1-.3-.1-.4-.1-.5-.1-.8-.4-1-.7s-.3-.6-.3-1c0-.3.1-.6.2-.8.1-.3.4-.5.7-.7s.7-.3 1.2-.3c.4 0 .8 0 1.1.1s.6.2.9.4l-.6 1c-.2-.1-.3-.2-.5-.3s-.4-.1-.5-.1c-.2 0-.3 0-.5.1-.1.1-.2.2-.2.3 0 .2.1.3.2.4s.4.2.7.3H-65.6c.8.3 1.2.8 1.2 1.5 0 .3-.1.7-.3 1s-.4.5-.8.7-.7.3-1.2.3c-.5.2-.9.1-1.3-.1z"/><path class="st9" d="M-57.3 290.5v9.1H-59v-9.1h1.7zM-43.8 299.6h-1.7v-3.7h-3.9v3.7h-1.7v-9.1h1.7v3.7h3.9v-3.7h1.7v9.1zM-36.2 294.2v5.4h-1.7v-.7c-.5.5-1.1.8-1.7.8-.8 0-1.4-.2-1.9-.7s-.7-1.2-.7-2.1c0-.6.1-1.1.4-1.6s.5-.8.9-1 .8-.4 1.3-.4.8.1 1.1.2.5.3.7.6l.1-.6h1.5zm-1.6 3.3v-1.3c-.1-.3-.3-.5-.5-.6s-.5-.2-.8-.2c-.4 0-.7.1-.9.4-.3.3-.4.6-.4 1.1 0 .3.1.5.2.8s.3.4.5.5.4.2.7.2c.5-.1.9-.4 1.2-.9zM-29.1 294.2l-3 5.5-3.1-5.5h2l1.2 2.6 1.1-2.6h1.8zM-24.6 297.9l.7 1.3c-.3.2-.6.3-.9.4s-.6.1-.9.1c-.6 0-1.2-.1-1.6-.4-.4-.2-.8-.6-1-1s-.3-.9-.3-1.5c0-.5.1-1 .4-1.5.3-.4.6-.8 1.1-1.1s1-.4 1.5-.4c.7 0 1.4.2 1.8.7.5.5.8 1.1.9 1.9l-3.8 1.3c.3.3.6.5 1 .5s.7-.1 1.1-.3zm-2.1-2.3c-.2.3-.3.6-.3 1.1v.1l2.3-.8c-.2-.5-.5-.8-1.1-.8-.4 0-.7.2-.9.4zM-11.9 295.6c.3.4.4.8.4 1.2 0 .9-.3 1.6-.9 2s-1.3.6-2.2.6h-2.9v-9.1h2.6c.9 0 1.7.2 2.2.6s.8 1 .8 1.7c0 .5-.1.8-.3 1.2-.2.3-.4.6-.8.8.5.4.8.7 1.1 1zm-3.9-1.4h1c.3 0 .6-.1.7-.3.2-.2.3-.5.3-.7 0-.3-.1-.5-.3-.7s-.5-.2-.8-.2h-.9v1.9zm2.1 3.4c.3-.2.4-.4.4-.8 0-.6-.5-1-1.5-1h-1v2h1.1c.4.1.8 0 1-.2zM-4.8 294.2v5.4h-1.5l-.1-.9c-.2.3-.4.6-.8.8-.3.2-.7.3-1.2.3s-.9-.2-1.2-.5-.5-.7-.5-1.2v-4h1.7v3.4c0 .5.3.8.7.8s.7-.2.9-.6.3-.8.3-1.4v-2.2h1.7zM-2.9 291.6c.2-.2.4-.3.6-.3s.4.1.6.3.3.4.3.6-.1.5-.3.6c-.2.2-.4.2-.6.2s-.5-.1-.6-.2c-.2-.2-.3-.4-.3-.6s.1-.4.3-.6zm1.5 2.6v5.4h-1.7v-5.4h1.7zM1.9 289.8v9.7H.3v-9.7h1.6z"/><path class="st18" d="M5.8 291.8v2.3h1.3v1.3H5.8v4.1H4.2v-4.1h-.9v-1.3h.8v-2.3h1.7z"/><path class="st9" d="M7.9 298c.2-.2.4-.3.6-.3s.4.1.6.3.3.4.3.6c0 .3-.1.5-.3.6s-.4.3-.6.3-.4-.1-.6-.2c-.2-.2-.3-.4-.3-.6.1-.3.2-.5.3-.7zM15.3 294.4c.3.3.5.7.5 1.2v4h-1.7v-3.4c0-.5-.3-.8-.8-.8-.4 0-.7.2-.9.6s-.3.8-.3 1.4v2.2h-1.7v-9.7H12v5.2c.2-.3.5-.6.8-.8s.7-.3 1.2-.3c.5-.1.9.1 1.3.4zM19.7 291.8v2.3H21v1.3h-1.3v4.1H18v-4.1h-.8v-1.3h.8v-2.3h1.7zM30.3 294.3c.3.3.5.7.5 1.2v4h-1.7v-3.3c0-.3-.1-.5-.1-.6-.1-.1-.2-.2-.4-.2-.4 0-.7.2-.9.6s-.3.8-.3 1.4v2.2h-1.7v-3.3c0-.3-.1-.5-.1-.6-.1-.1-.2-.2-.4-.2-.4 0-.7.2-.9.6s-.3.8-.3 1.4v2.2h-1.7v-5.4h1.5l.1.9c.4-.7 1-1.1 1.9-1.1.4 0 .8.1 1 .3.3.2.5.4.6.8.2-.3.5-.6.8-.8s.6-.3.9-.3c.5-.2.9-.1 1.2.2zM34.2 289.8v9.7h-1.7v-9.7h1.7z"/></g></svg>