<svg xmlns="http://www.w3.org/2000/svg" viewBox="0 0 24 24" fill="#3473db"><path d="M9.318 19C7.707 19 6.049 18.291 5 16.832l.491.021c3.979 0 2.612-4.516 6.696-4.559l1.84 1.535C14.307 17.222 11.871 19 9.318 19zm9.748-9.283c1.186-1.862 3.832-6.82 4.844-8.748A.639.639 0 0 0 24 .646.666.666 0 0 0 23.344 0a.63.63 0 0 0-.408.155c-1.67 1.413-5.898 5.02-7.512 6.525-1.531 1.432-1.537 2.087-2.033 4.448l1.68 1.4c2.226-.915 2.867-1.04 3.995-2.811zM20 11.823V22H2V8h10.098c.654-1.789 1.74-2.664 5.604-6H0v22h22V8.683c-.689 1.215-1.275 2.266-2 3.14z"/></svg>