<svg xmlns="http://www.w3.org/2000/svg" width="50" height="50" viewBox="0 0 24 24"><path d="M6.72 20.492A9.941 9.941 0 0 0 12 22c1.934 0 3.741-.55 5.272-1.503l1.24 1.582A11.94 11.94 0 0 1 12 24c-2.403 0-4.642-.708-6.52-1.926l1.24-1.582zM12.217 20h-.447a.47.47 0 0 1-.308-.109l-.593-.391h2.25l-.594.391a.466.466 0 0 1-.308.109zm-10.814-.838H0a2 2 0 0 1 2-2h2a2 2 0 0 1 2 2H4.597c-.196-.606-.755-.726-1.597-.726s-1.4.115-1.597.726zM13.14 19h-2.279a.25.25 0 0 1 0-.5h2.279a.25.25 0 0 1 0 .5zm6.263 0H18a2 2 0 0 1 2-2h2a2 2 0 0 1 2 2h-1.403c-.196-.606-.755-.726-1.597-.726s-1.4.115-1.597.726zm-7.586-.986h-1.414C10.39 15.444 9 15.136 9 13.367c0-1.695 1.327-2.852 3-2.852h.02c1.663.009 2.98 1.163 2.98 2.852 0 1.769-1.391 2.077-1.404 4.647h-1.414c0-2.735 1.318-3.614 1.318-4.651 0-.856-.694-1.333-1.5-1.348h-.019c-.798.022-1.481.499-1.481 1.348 0 1.037 1.317 1.916 1.317 4.651zM3 12.162a2.25 2.25 0 1 1-.002 4.502A2.25 2.25 0 0 1 3 12.162zM21 12a2.25 2.25 0 1 1-.002 4.502A2.25 2.25 0 0 1 21 12zm-5.13 2.386l1.349.612-.413.91-1.298-.588c.15-.3.275-.608.362-.934zm-7.739-.001c.087.332.208.631.36.935l-1.296.588-.414-.91 1.35-.613zM3 13.512a.9.9 0 1 1 0 1.8.9.9 0 0 1 0-1.8zm18-.162a.9.9 0 1 1 0 1.8.9.9 0 0 1 0-1.8zm-3.5.15h-1.501c.01-.335-.02-.673-.093-1H17.5v1zm-9.498 0H6.5v-1h1.594a4.08 4.08 0 0 0-.092.998v.002zm7.02-2.714l1.242-.882.579.816-1.252.888a3.627 3.627 0 0 0-.569-.822zm-6.044-.001c-.23.252-.418.525-.569.823l-1.251-.888.578-.816 1.242.881zm4.435-1.046l.663-1.345.897.443-.664 1.345a4.063 4.063 0 0 0-.896-.443zm-2.826-.001c-.315.11-.618.258-.897.442l-.663-1.343.897-.443.663 1.344zM8 .684v2.149a10.026 10.026 0 0 0-5.798 7.158L.168 9.988C.9 5.66 3.953 2.116 8 .684zm8 0c4.047 1.432 7.1 4.976 7.832 9.304l-2.034.003A10.026 10.026 0 0 0 16 2.833V.684zm-3.5 8.847a4.18 4.18 0 0 0-1-.002V8h1v1.531zM10.403 7H9a2 2 0 0 1 2-2h2a2 2 0 0 1 2 2h-1.403c-.196-.606-.755-.726-1.597-.726s-1.4.115-1.597.726zM12 0a2.25 2.25 0 1 1-.002 4.502A2.25 2.25 0 0 1 12 0zm0 1.35a.9.9 0 1 1 0 1.8.9.9 0 0 1 0-1.8z"/></svg>