<svg id="Layer_1" xmlns="http://www.w3.org/2000/svg" viewBox="-272.3 240 266.7 90.7"><style>.bluesvg{fill:#3473db}.redsvg{fill:#e74c3c}</style><path class="bluesvg" d="M-267.1 299.8l48.2 27.7v2.6l-52.6-30.3 52.6-30.3v2.6l-48.2 27.7zM-199.7 330.6h-2.3l33.3-90.6h2.3l-33.3 90.6z"/><path class="redsvg" d="M-152.2 327.9c-2.6-1-4.7-2.4-6.3-4.3l1.4-1.4c1.2 1.5 2.9 2.8 5.2 3.7s4.7 1.4 7.4 1.4c3.3 0 6.1-.8 8.4-2.5 2.3-1.7 3.5-4.4 3.5-8 0-2.2-.6-4.1-1.8-5.5-1.2-1.4-2.6-2.5-4.2-3.2-1.6-.7-3.9-1.6-6.9-2.5-3.6-1.3-6.4-2.7-8.3-4.4-1.9-1.6-2.9-4.1-2.9-7.3 0-3.6 1.2-6.4 3.7-8.4 2.4-2 5.3-3.1 8.7-3.1 2.1 0 4.3.4 6.5 1.3 2.3.9 4.2 2.2 5.8 4l-1.3 1.6c-1.2-1.5-2.9-2.7-5-3.5-2.1-.8-4.1-1.2-5.9-1.2-2.5 0-4.8.8-7 2.3-2.2 1.6-3.2 3.8-3.2 6.8 0 2.6.9 4.6 2.6 6 1.7 1.4 4.3 2.6 7.6 3.8 3.3 1.1 5.8 2.1 7.5 2.9 1.7.8 3.2 2 4.5 3.5 1.3 1.6 1.9 3.6 1.9 6.2 0 4.1-1.2 7.3-3.7 9.6-2.4 2.4-5.9 3.5-10.5 3.5-2.5.1-5.1-.4-7.7-1.3zM-76.1 283l-21.3 47.3h-.7l-21.5-47.3h2.6l19.2 43 19.2-43h2.5z"/><path class="bluesvg" d="M-10.3 299.8l-48.1-27.7v-2.6l52.5 30.3-52.5 30.3v-2.6l48.1-27.7z"/></svg>